<?xml version="1.0" encoding="UTF-8" standalone="no"?>
<!-- Created with Inkscape (http://www.inkscape.org/) -->

<svg
   width="1000"
   height="80"
   viewBox="0 0 264.58333 21.166666"
   version="1.1"
   id="svg1"
   inkscape:version="1.3.2 (091e20e, 2023-11-25, custom)"
   sodipodi:docname="bord.svg"
   xmlns:inkscape="http://www.inkscape.org/namespaces/inkscape"
   xmlns:sodipodi="http://sodipodi.sourceforge.net/DTD/sodipodi-0.dtd"
   xmlns="http://www.w3.org/2000/svg"
   xmlns:svg="http://www.w3.org/2000/svg">
  <sodipodi:namedview
     id="namedview1"
     pagecolor="#ffffff"
     bordercolor="#000000"
     borderopacity="0.25"
     inkscape:showpageshadow="2"
     inkscape:pageopacity="0.0"
     inkscape:pagecheckerboard="0"
     inkscape:deskcolor="#d1d1d1"
     inkscape:document-units="mm"
     inkscape:zoom="0.92951403"
     inkscape:cx="594.39662"
     inkscape:cy="99.514366"
     inkscape:window-width="1920"
     inkscape:window-height="1001"
     inkscape:window-x="-9"
     inkscape:window-y="-9"
     inkscape:window-maximized="1"
     inkscape:current-layer="g107" />
  <defs
     id="defs1" />
  <g
     inkscape:label="Camada 1"
     inkscape:groupmode="layer"
     id="layer1">
    <g
       id="g107"
       transform="matrix(1.2265049,0,0,0.63827633,-25.656998,-88.905922)">
		<g
   id="g73">
			<path
   style="fill:#e2c799;fill-opacity:1"
   d="m 131.704,163.799 c 0.247,0.172 0.037,0.546 -0.239,0.404 -7.88,-4.059 -15.999,-5.824 -24.26,-6.265 1.084,5.846 -5.495,8.433 -10.085,9.607 -0.284,0.075 -0.516,-0.12 -0.553,-0.381 -0.329,0.007 -0.62,-0.411 -0.321,-0.718 0.209,-0.217 0.434,-0.426 0.643,-0.643 1.032,-3.222 3.289,-6.302 6.272,-7.969 -3.514,-0.015 -7.058,0.179 -10.609,0.516 0.434,4.897 -3.028,9.442 -7.865,10.392 -0.015,0.022 -0.03,0.052 -0.052,0.075 -0.149,0.217 -0.419,0.179 -0.553,0.03 -0.03,0.007 -0.06,0.015 -0.09,0.015 -0.239,0.03 -0.419,-0.217 -0.426,-0.426 -0.157,-3.633 1.443,-7.304 4.231,-9.562 -2.878,0.366 -5.764,0.793 -8.665,1.249 -0.105,0.015 -0.209,0.037 -0.314,0.052 0,0 0,0 0,0.008 1.989,5.614 -3.454,9.472 -7.693,11.85 0.022,0.06 -0.06,0.127 -0.112,0.067 v -0.008 c -0.037,0.022 -0.067,0.037 -0.105,0.06 -0.351,0.194 -0.837,-0.135 -0.703,-0.546 1.136,-3.559 2.744,-8.291 5.801,-10.99 -3.416,0.538 -6.87,1.054 -10.354,1.465 -0.927,4.979 -5.001,8.911 -10.048,9.592 -0.254,0.037 -0.583,-0.105 -0.546,-0.411 0.314,-3.252 2.228,-6.676 5.017,-8.642 -2.587,0.194 -5.174,0.321 -7.753,0.307 1.092,4.725 -6.699,5.973 -8.949,8.65 -0.262,0.314 -0.778,0.045 -0.778,-0.322 -0.007,-3.103 1.862,-6.736 4.665,-8.523 -2.415,-0.179 -4.807,-0.493 -7.177,-0.972 -2.033,4.321 -7.274,6.302 -11.797,5.151 -0.269,-0.067 -0.426,-0.411 -0.269,-0.658 2.138,-3.319 5.757,-5.151 9.711,-4.852 0.112,0.007 0.284,-0.037 0.434,-0.075 0.097,0.022 0.194,0.052 0.292,0.067 -0.007,0 -0.007,0.008 -0.007,0.008 -1.308,1.861 -3.753,4.187 -6.056,4.844 2.833,-0.434 5.316,-2.138 7.072,-4.62 -0.336,-0.075 -0.673,-0.15 -1.009,-0.232 0.097,-0.149 -0.075,-0.12 -0.292,-0.067 -2.699,-0.65 -5.353,-1.533 -7.947,-2.691 -0.03,0.037 -0.067,0.067 -0.127,0.082 -3.858,1.196 -7.82,-1.914 -8.269,-5.764 -0.007,-0.06 0.022,-0.12 0.052,-0.18 -0.015,-0.015 -0.037,-0.03 -0.052,-0.045 -0.149,-0.135 0.052,-0.411 0.217,-0.284 0.06,0.037 0.112,0.075 0.164,0.12 3.431,-0.673 8.381,1.495 8.65,5.443 0,0.03 -0.015,0.045 -0.023,0.06 1.757,0.658 3.514,1.204 5.278,1.667 -2.4,-2.026 -3.499,-5.443 -2.796,-8.56 0.052,-0.209 0.284,-0.254 0.456,-0.179 4.06,1.719 6.788,5.428 7.252,9.779 2.699,0.449 5.405,0.71 8.119,0.822 -3.245,-1.548 -5.562,-5.48 -5.816,-8.792 -0.03,-0.366 0.471,-0.546 0.703,-0.291 2.542,2.684 10.354,3.992 8.874,9.143 2.646,-0.015 5.301,-0.15 7.962,-0.366 -3.252,-1.548 -5.689,-4.874 -6.34,-8.373 -0.067,-0.336 0.292,-0.725 0.636,-0.493 3.506,2.422 10.414,3.118 10.81,8.351 2.699,-0.314 5.398,-0.695 8.097,-1.091 -3.753,-0.882 -6.871,-3.648 -8.388,-7.304 -0.097,-0.224 0.142,-0.538 0.389,-0.508 5.144,0.621 11.035,1.615 13.816,6.527 0.045,0.082 0.045,0.172 0.03,0.254 0.082,-0.015 0.157,-0.037 0.232,-0.052 0.112,-0.022 0.217,0.052 0.262,0.142 1.727,-0.262 3.461,-0.523 5.181,-0.763 0.68,-0.097 1.368,-0.187 2.063,-0.284 -3.603,-0.74 -6.863,-3.626 -8.254,-6.878 -0.105,-0.239 0.007,-0.576 0.321,-0.561 5.174,0.284 11.394,1.091 13.18,6.818 2.863,-0.299 5.771,-0.516 8.702,-0.606 -3.252,-1.323 -5.719,-4.321 -6.519,-7.827 -0.067,-0.284 0.179,-0.531 0.464,-0.464 5.211,1.196 11.065,2.901 13.068,8.381 8.293,0.482 16.352,2.441 23.095,7.24 z m -34.068,2.67 c 3.992,-1.092 9.42,-3.252 8.74,-8.089 -2.998,2.497 -5.861,5.121 -8.665,7.835 -0.031,0.081 -0.053,0.171 -0.075,0.254 z m 7.969,-8.591 c -0.127,-0.008 -0.247,-0.015 -0.374,-0.015 -2.908,1.465 -5.271,3.484 -6.699,6.302 2.273,-2.19 4.643,-4.276 7.073,-6.287 z m -1.772,-1.442 c 0.957,-0.007 1.906,0.007 2.863,0.037 -3.671,-1.951 -7.162,-4.149 -10.474,-6.669 1.264,3.424 4.097,5.712 7.611,6.632 z m 3.903,-0.202 c -1.974,-4.374 -6.646,-5.958 -11.094,-7.028 3.498,2.654 7.199,5.009 11.094,7.028 z m -17.562,8.007 c 1.174,-1.682 1.749,-3.686 1.615,-5.712 -2.258,3.058 -4.351,6.205 -6.497,9.33 0.807,-0.202 1.824,-0.822 2.183,-1.047 1.062,-0.643 1.989,-1.555 2.699,-2.571 z m 0.621,-7.043 c 0.037,-0.015 0.082,-0.022 0.12,-0.037 -3.282,-0.987 -7.035,-2.467 -9.233,-4.904 -0.007,-0.007 -0.007,-0.022 -0.007,-0.03 -0.224,0.03 -0.434,0.022 -0.635,-0.045 2.241,3.289 5.733,4.65 9.755,5.016 z m 0.037,1.323 c -0.471,0.052 -0.95,0.105 -1.421,0.157 -1.204,0.807 -2.265,1.802 -3.11,3.05 -0.635,0.934 -1.144,1.966 -1.473,3.05 -0.157,0.516 -0.822,2.676 -0.441,3.02 0.015,0.015 0.045,0.015 0.06,0.022 1.93,-3.213 4.135,-6.286 6.385,-9.299 z m 1.077,-1.906 c -1.749,-4.531 -7.013,-5.316 -11.409,-5.577 0.12,0.202 0.217,0.404 0.419,0.561 0.232,0.179 0.576,0.322 0.875,0.322 0.03,0 0.052,-0.007 0.082,0.007 0.015,0 0.022,0.008 0.03,0.008 0.03,0.007 0.052,0.015 0.067,0.03 1.54,0.665 2.908,1.705 4.418,2.467 1.772,0.904 3.619,1.599 5.518,2.182 z M 78.669,159 c 0.127,-0.045 0.239,-0.105 0.366,-0.142 -3.88,-1.151 -7.626,-2.639 -11.259,-4.411 2.071,2.833 5.211,4.501 8.852,4.859 0.68,-0.104 1.36,-0.209 2.041,-0.306 z m -7.162,11.7 c 3.559,-2.071 7.282,-4.897 6.676,-9.293 -1.779,2.669 -3.559,5.338 -5.338,8.007 -0.142,0.209 -0.374,0.224 -0.546,0.142 0.015,0.09 -0.015,0.187 -0.12,0.224 -0.157,0.06 -0.284,0.12 -0.411,0.187 -0.089,0.239 -0.179,0.486 -0.261,0.733 z m 0.613,-1.72 c 1.832,-2.774 3.671,-5.547 5.51,-8.313 -2.684,2.116 -4.284,5.054 -5.51,8.313 z m 6.444,-11.124 c -2.669,-3.641 -7.491,-4.575 -11.82,-5.099 0.105,0.217 0.224,0.426 0.344,0.636 0.112,-0.067 0.247,-0.09 0.396,-0.015 3.589,1.779 7.282,3.244 11.08,4.478 z m -15.827,3.26 c 0.448,-0.045 0.905,-0.09 1.353,-0.135 -2.923,-1.936 -5.988,-4.217 -8.007,-6.99 -0.015,-0.022 -0.022,-0.045 -0.03,-0.06 -0.149,-0.075 -0.292,-0.15 -0.434,-0.224 1.085,3.618 3.716,6.04 7.118,7.409 z m 1.338,1.129 c -0.546,0.06 -1.084,0.127 -1.63,0.179 -3.342,1.652 -5.876,4.329 -6.452,8.306 0.067,-0.015 0.142,-0.023 0.217,-0.037 2.213,-3.036 5.196,-5.735 7.865,-8.448 z m 1.04,-1.608 c -0.419,-3.372 -4.052,-4.628 -7.244,-5.921 2.384,2.041 4.612,4.142 7.244,5.921 z m -7.372,9.607 c 3.282,-1.204 5.824,-3.88 6.833,-7.267 -2.213,2.43 -4.396,5.084 -6.833,7.267 z m -5.555,-9.173 c 0.576,-3.312 -3.738,-4.859 -6.721,-6.534 2.273,2.138 4.493,4.343 6.721,6.534 z m -7.618,8.455 c 2.968,-1.712 7.581,-3.23 6.893,-6.497 -2.235,2.176 -4.426,4.591 -6.893,6.497 z m 5.787,-6.639 c -0.359,-0.015 -0.725,-0.03 -1.084,-0.045 -1.196,0.501 -2.303,1.144 -3.267,2.175 -1.181,1.256 -1.974,2.751 -2.31,4.389 1.913,-2.362 4.388,-4.433 6.661,-6.519 z m -3.35,-3.94 c 1.316,1.278 2.751,1.899 4.336,2.46 -2.31,-2.25 -4.635,-4.493 -6.886,-6.796 0.45,1.638 1.317,3.133 2.55,4.336 z m -6.713,1.346 c -0.247,-1.682 -0.837,-3.267 -1.802,-4.695 -0.807,-1.196 -2.445,-3.192 -3.932,-3.581 1.465,3.095 3.327,5.831 5.734,8.276 z m -2.759,-0.209 c 0.643,0.15 1.293,0.284 1.936,0.411 -2.43,-2.415 -4.374,-5.301 -5.674,-8.471 -0.187,0.172 -0.097,0.576 -0.097,1.099 0,0.441 0.045,0.852 0.12,1.286 0.157,0.942 0.464,1.832 0.927,2.676 0.68,1.25 1.644,2.221 2.788,2.999 z m -7.895,5.854 c 2.983,-0.665 5.398,-1.391 7.312,-3.768 -3.132,0.022 -5.958,1.465 -7.805,4.015 0.105,0.015 0.202,0.037 0.307,0.052 -0.03,-0.127 0.015,-0.262 0.186,-0.299 z m -0.224,-7.678 c -0.112,-0.09 -0.127,-0.239 -0.082,-0.374 -2.362,-1.263 -4.613,-2.721 -6.661,-4.448 -0.09,0.561 0.561,1.6 0.777,1.936 0.464,0.725 1.107,1.368 1.824,1.847 1.249,0.837 2.677,1.166 4.142,1.039 z m 0.665,-0.583 c -0.695,-1.346 -1.323,-2.497 -2.699,-3.387 -0.658,-0.434 -1.398,-0.763 -2.168,-0.95 -0.314,-0.075 -1.675,-0.359 -2.243,-0.209 2.273,1.667 4.606,3.222 7.11,4.546 z"
   id="path46" />

			<path
   style="fill:#cefff1;fill-opacity:0"
   d="m 106.375,158.379 c 0.68,4.837 -4.747,6.998 -8.74,8.089 0.022,-0.082 0.045,-0.172 0.075,-0.254 2.804,-2.713 5.667,-5.338 8.665,-7.835 z"
   id="path47" />

			<path
   style="fill:#84fedc;fill-opacity:0"
   d="m 105.231,157.863 c 0.127,0 0.247,0.007 0.374,0.015 -2.43,2.011 -4.8,4.097 -7.072,6.287 1.428,-2.818 3.79,-4.836 6.698,-6.302 z"
   id="path48" />

			<path
   style="fill:#cefff1;fill-opacity:0"
   d="m 106.697,156.473 c -0.957,-0.03 -1.906,-0.045 -2.863,-0.037 -3.514,-0.919 -6.347,-3.207 -7.611,-6.631 3.312,2.519 6.803,4.717 10.474,6.668 z"
   id="path49" />

			<path
   style="fill:#84fedc;fill-opacity:0"
   d="m 96.641,149.206 c 4.448,1.069 9.121,2.654 11.094,7.028 -3.894,-2.019 -7.595,-4.374 -11.094,-7.028 z"
   id="path50" />

			<path
   style="fill:#cefff1;fill-opacity:0"
   d="m 91.789,158.529 c 0.135,2.026 -0.441,4.03 -1.615,5.712 -0.71,1.017 -1.637,1.929 -2.699,2.572 -0.359,0.224 -1.376,0.845 -2.183,1.047 2.146,-3.126 4.239,-6.273 6.497,-9.331 z"
   id="path51" />

			<path
   style="fill:#cefff1;fill-opacity:0"
   d="m 90.915,157.161 c -0.037,0.015 -0.082,0.022 -0.12,0.037 -4.022,-0.366 -7.514,-1.727 -9.756,-5.017 0.202,0.067 0.411,0.075 0.635,0.045 0,0.007 0,0.022 0.007,0.03 2.199,2.438 5.952,3.918 9.234,4.905 z"
   id="path52" />

			<path
   style="fill:#84fedc;fill-opacity:0"
   d="m 89.412,158.678 c 0.471,-0.052 0.95,-0.105 1.421,-0.157 -2.25,3.013 -4.456,6.086 -6.385,9.3 -0.015,-0.007 -0.045,-0.007 -0.06,-0.022 -0.381,-0.344 0.284,-2.505 0.441,-3.02 0.329,-1.084 0.837,-2.116 1.473,-3.05 0.845,-1.249 1.906,-2.243 3.11,-3.051 z"
   id="path53" />

			<path
   style="fill:#84fedc;fill-opacity:0.02150538"
   d="m 80.5,151.038 c 4.396,0.262 9.659,1.047 11.409,5.577 -1.899,-0.583 -3.745,-1.279 -5.517,-2.183 -1.51,-0.762 -2.878,-1.802 -4.418,-2.467 -0.015,-0.015 -0.037,-0.022 -0.067,-0.03 -0.007,0 -0.015,-0.008 -0.03,-0.008 -0.03,-0.015 -0.052,-0.007 -0.082,-0.007 -0.299,0 -0.643,-0.142 -0.875,-0.322 -0.203,-0.157 -0.3,-0.358 -0.42,-0.56 z"
   id="path54" />

			<path
   style="fill:#cefff1;fill-opacity:0"
   d="m 79.035,158.858 c -0.127,0.037 -0.239,0.097 -0.366,0.142 -0.68,0.097 -1.361,0.202 -2.041,0.307 -3.641,-0.359 -6.781,-2.026 -8.852,-4.859 3.633,1.771 7.379,3.258 11.259,4.41 z"
   id="path55" />

			<path
   style="fill:#cefff1;fill-opacity:0"
   d="m 78.183,161.407 c 0.606,4.396 -3.118,7.222 -6.676,9.293 0.082,-0.247 0.172,-0.493 0.262,-0.733 0.127,-0.067 0.254,-0.127 0.411,-0.187 0.105,-0.037 0.135,-0.135 0.12,-0.224 0.172,0.082 0.404,0.067 0.546,-0.142 1.778,-2.669 3.557,-5.338 5.337,-8.007 z"
   id="path56" />

			<path
   style="fill:#84fedc;fill-opacity:0"
   d="m 77.63,160.667 c -1.839,2.766 -3.678,5.54 -5.51,8.313 1.226,-3.259 2.826,-6.197 5.51,-8.313 z"
   id="path57" />

			<path
   style="fill:#84fedc;fill-opacity:0"
   d="m 66.744,152.757 c 4.329,0.523 9.151,1.458 11.82,5.099 -3.798,-1.234 -7.491,-2.699 -11.08,-4.478 -0.149,-0.075 -0.284,-0.052 -0.396,0.015 -0.119,-0.21 -0.239,-0.419 -0.344,-0.636 z"
   id="path58" />

			<path
   style="fill:#cefff1;fill-opacity:0"
   d="m 64.09,160.981 c -0.448,0.045 -0.905,0.09 -1.353,0.135 -3.402,-1.368 -6.033,-3.79 -7.117,-7.409 0.142,0.075 0.284,0.149 0.434,0.224 0.008,0.015 0.015,0.037 0.03,0.06 2.018,2.773 5.083,5.054 8.006,6.99 z"
   id="path59" />

			<path
   style="fill:#84fedc;fill-opacity:0"
   d="m 62.446,162.424 c 0.546,-0.052 1.084,-0.12 1.63,-0.179 -2.669,2.714 -5.652,5.413 -7.865,8.448 -0.075,0.015 -0.149,0.022 -0.217,0.037 0.575,-3.977 3.11,-6.654 6.452,-8.306 z"
   id="path60" />

			<path
   style="fill:#84fedc;fill-opacity:0"
   d="m 57.87,154.716 c 3.192,1.293 6.826,2.549 7.244,5.921 -2.631,-1.779 -4.859,-3.88 -7.244,-5.921 z"
   id="path61" />

			<path
   style="fill:#cefff1;fill-opacity:0"
   d="m 64.576,162.977 c -1.009,3.387 -3.551,6.063 -6.833,7.267 2.437,-2.183 4.62,-4.837 6.833,-7.267 z"
   id="path62" />

			<path
   style="fill:#84fedc;fill-opacity:0"
   d="m 45.467,154.537 c 2.983,1.675 7.297,3.222 6.721,6.534 -2.228,-2.191 -4.448,-4.396 -6.721,-6.534 z"
   id="path63" />

			<path
   style="fill:#cefff1;fill-opacity:0"
   d="m 51.463,163.029 c 0.688,3.267 -3.925,4.785 -6.893,6.497 2.467,-1.906 4.658,-4.321 6.893,-6.497 z"
   id="path64" />

			<path
   style="fill:#84fedc;fill-opacity:0"
   d="m 49.273,162.843 c 0.359,0.015 0.725,0.03 1.084,0.045 -2.273,2.086 -4.747,4.157 -6.661,6.519 0.336,-1.637 1.129,-3.133 2.31,-4.389 0.964,-1.032 2.07,-1.674 3.267,-2.175 z"
   id="path65" />

			<path
   style="fill:#cefff1;fill-opacity:0"
   d="m 51.344,161.407 c -1.585,-0.561 -3.02,-1.181 -4.336,-2.46 -1.234,-1.204 -2.101,-2.699 -2.549,-4.336 2.249,2.303 4.575,4.546 6.885,6.796 z"
   id="path66" />

			<path
   style="fill:#cefff1;fill-opacity:0"
   d="m 38.455,161.392 c 0.336,0.082 0.673,0.157 1.009,0.232 -1.757,2.482 -4.239,4.187 -7.072,4.62 2.303,-0.658 4.747,-2.983 6.056,-4.844 -10e-4,0 -10e-4,-0.008 0.007,-0.008 z"
   id="path67" />

			<path
   style="fill:#84fedc;fill-opacity:0"
   d="m 38.492,155.598 c 0.965,1.428 1.555,3.013 1.802,4.695 -2.407,-2.445 -4.269,-5.181 -5.734,-8.276 1.488,0.389 3.125,2.385 3.932,3.581 z"
   id="path68" />

			<path
   style="fill:#cefff1;fill-opacity:0"
   d="m 39.472,160.495 c -0.643,-0.127 -1.293,-0.262 -1.936,-0.411 -1.144,-0.777 -2.108,-1.749 -2.789,-2.998 -0.464,-0.845 -0.77,-1.734 -0.927,-2.676 -0.075,-0.434 -0.12,-0.845 -0.12,-1.286 0,-0.523 -0.09,-0.927 0.097,-1.099 1.301,3.17 3.245,6.055 5.675,8.47 z"
   id="path69" />

			<path
   style="fill:#3c3c3b"
   d="m 38.163,161.325 c 0.217,-0.052 0.389,-0.082 0.292,0.067 -0.097,-0.015 -0.195,-0.045 -0.292,-0.067 z"
   id="path70" />

			<path
   style="fill:#84fedc;fill-opacity:0"
   d="m 36.952,162.17 c -1.914,2.377 -4.329,3.103 -7.312,3.768 -0.172,0.037 -0.217,0.172 -0.187,0.299 -0.105,-0.015 -0.202,-0.037 -0.307,-0.052 1.848,-2.55 4.674,-3.993 7.806,-4.015 z"
   id="path71" />

			<path
   style="fill:#cefff1;fill-opacity:0"
   d="m 29.334,157.886 c -0.045,0.135 -0.03,0.284 0.082,0.374 -1.465,0.127 -2.893,-0.202 -4.142,-1.039 -0.718,-0.478 -1.361,-1.121 -1.824,-1.847 -0.217,-0.336 -0.867,-1.376 -0.777,-1.936 2.048,1.727 4.299,3.184 6.661,4.448 z"
   id="path72" />

			<path
   style="fill:#84fedc;fill-opacity:0"
   d="m 27.383,154.29 c 1.376,0.89 2.004,2.041 2.699,3.387 -2.504,-1.323 -4.837,-2.878 -7.11,-4.546 0.568,-0.15 1.929,0.135 2.243,0.209 0.77,0.187 1.51,0.516 2.168,0.95 z"
   id="path73" />

		</g>

		<g
   id="g78">
			<g
   id="g75">
				<path
   style="fill:#e2c799;fill-opacity:1"
   d="m 136.15,144.521 c 0.508,1.047 0.359,2.183 -0.045,3.26 -0.008,0.135 -0.015,0.277 -0.037,0.411 -0.022,0.165 -0.127,0.239 -0.247,0.262 -0.344,0.733 -0.785,1.428 -1.174,2.033 -1.323,2.034 -2.901,4.404 -4.957,5.757 -0.224,0.15 -0.493,0.007 -0.591,-0.209 -0.052,-0.112 -0.052,-0.239 0.022,-0.359 1.406,-2.168 3.357,-3.933 4.762,-6.138 0.404,-0.635 0.92,-1.368 1.136,-2.108 0.224,-0.322 0.314,-0.635 0.284,-0.942 -0.037,-0.172 -0.097,-0.329 -0.157,-0.493 -0.142,-0.254 -0.381,-0.508 -0.725,-0.755 -0.023,-0.262 -0.075,-0.486 -0.142,-0.68 -0.307,-0.336 -0.665,-0.635 -1.069,-0.875 -0.15,0 -0.314,0.015 -0.493,0.06 -1.742,-0.097 -3.043,1.361 -4.149,2.542 0.262,0.605 -0.635,1.114 -0.994,0.508 -0.456,-0.77 -0.972,-1.72 -1.622,-2.325 -0.658,-0.598 -2.138,-1.421 -3.035,-1.301 -1.346,0.187 -1.921,2.347 -1.794,3.364 0.12,0.95 0.531,1.712 1.062,2.497 1.712,2.564 4.433,4.448 6.4,6.826 0.052,0.067 0.09,0.135 0.097,0.202 0.06,0.322 -0.321,0.591 -0.643,0.344 -3.133,-2.452 -10.197,-7.641 -7.648,-12.508 2.123,-4.045 5.899,-1.062 7.7,1.592 1.869,-2.221 6.272,-4.658 8.059,-0.965 z"
   id="path74" />

				
			</g>

			<g
   style="opacity:0.52"
   id="g77">
				<path
   style="fill:#e2c799;fill-opacity:1"
   d="m 136.15,144.521 c -1.787,-3.693 -6.19,-1.256 -8.059,0.964 -1.802,-2.654 -5.577,-5.637 -7.7,-1.592 -0.38,0.725 -0.542,1.456 -0.54,2.186 0.424,-0.247 0.867,-0.422 1.322,-0.534 0.183,-1.033 0.755,-2.24 1.745,-2.377 0.897,-0.119 2.377,0.703 3.035,1.301 0.65,0.606 1.166,1.555 1.622,2.325 0.359,0.606 1.256,0.097 0.994,-0.508 1.106,-1.181 2.407,-2.639 4.149,-2.542 0.179,-0.045 0.344,-0.06 0.493,-0.06 0.404,0.239 0.763,0.538 1.069,0.875 0.067,0.195 0.12,0.419 0.142,0.68 0.344,0.247 0.583,0.501 0.725,0.755 0.06,0.164 0.12,0.321 0.157,0.493 0.03,0.307 -0.06,0.621 -0.284,0.942 -0.217,0.74 -0.733,1.473 -1.136,2.108 -0.099,0.156 -0.207,0.305 -0.311,0.457 0.109,0.728 0.098,1.444 -0.022,2.133 0.385,-0.554 0.75,-1.109 1.096,-1.641 0.389,-0.606 0.83,-1.301 1.174,-2.033 0.12,-0.023 0.224,-0.098 0.247,-0.262 0.022,-0.135 0.03,-0.277 0.037,-0.411 0.404,-1.076 0.553,-2.212 0.045,-3.259 z"
   id="path76" />

				<path
   style="fill:#e2c799;fill-opacity:0"
   d="m 135.148,145.994 c -0.142,-0.254 -0.381,-0.508 -0.725,-0.755 -0.022,-0.262 -0.075,-0.486 -0.142,-0.68 -0.307,-0.336 -0.665,-0.635 -1.069,-0.875 -0.15,0 -0.314,0.015 -0.493,0.06 -1.742,-0.097 -3.043,1.361 -4.149,2.542 0.262,0.606 -0.635,1.114 -0.994,0.508 -0.456,-0.77 -0.972,-1.719 -1.622,-2.325 -0.658,-0.598 -2.138,-1.42 -3.035,-1.301 -0.991,0.138 -1.562,1.344 -1.745,2.377 1.785,-0.438 3.744,0.107 5.356,1.18 0.631,0.42 1.197,0.908 1.699,1.446 0.291,-0.315 0.577,-0.63 0.841,-0.951 1.291,-1.572 3.413,-0.414 4.032,1.064 0.239,0.569 0.388,1.142 0.473,1.71 0.104,-0.152 0.212,-0.301 0.311,-0.457 0.404,-0.635 0.92,-1.368 1.136,-2.108 0.224,-0.322 0.314,-0.636 0.284,-0.942 -0.038,-0.172 -0.098,-0.329 -0.158,-0.493 z"
   id="path77" />

			</g>

			
		</g>

		<g
   id="g106">
			<path
   style="fill:#e2c799;fill-opacity:1"
   d="m 148.739,156.555 c 2.004,-5.48 7.857,-7.185 13.068,-8.381 0.284,-0.067 0.531,0.18 0.464,0.464 -0.8,3.506 -3.267,6.504 -6.519,7.827 2.931,0.09 5.839,0.307 8.702,0.606 1.787,-5.727 8.007,-6.534 13.18,-6.818 0.314,-0.015 0.426,0.321 0.322,0.561 -1.391,3.252 -4.65,6.138 -8.254,6.878 0.695,0.097 1.383,0.187 2.063,0.284 1.72,0.239 3.454,0.501 5.181,0.763 0.045,-0.09 0.149,-0.165 0.262,-0.142 0.075,0.015 0.15,0.037 0.232,0.052 -0.015,-0.082 -0.015,-0.172 0.03,-0.254 2.781,-4.912 8.672,-5.906 13.816,-6.527 0.247,-0.03 0.486,0.284 0.389,0.508 -1.518,3.656 -4.635,6.422 -8.388,7.304 2.699,0.396 5.398,0.777 8.097,1.091 0.396,-5.233 7.304,-5.929 10.81,-8.351 0.344,-0.232 0.703,0.157 0.635,0.493 -0.65,3.499 -3.088,6.826 -6.34,8.373 2.661,0.217 5.316,0.351 7.962,0.366 -1.48,-5.151 6.332,-6.459 8.874,-9.143 0.232,-0.254 0.733,-0.075 0.703,0.291 -0.254,3.312 -2.572,7.244 -5.816,8.792 2.714,-0.112 5.42,-0.374 8.119,-0.822 0.464,-4.351 3.192,-8.059 7.252,-9.779 0.172,-0.075 0.404,-0.03 0.456,0.179 0.703,3.118 -0.396,6.534 -2.796,8.56 1.764,-0.464 3.521,-1.009 5.278,-1.667 -0.008,-0.015 -0.023,-0.03 -0.023,-0.06 0.269,-3.947 5.218,-6.115 8.65,-5.443 0.052,-0.045 0.105,-0.082 0.165,-0.12 0.164,-0.127 0.366,0.15 0.217,0.284 -0.015,0.015 -0.037,0.03 -0.052,0.045 0.03,0.06 0.06,0.12 0.052,0.18 -0.449,3.85 -4.411,6.96 -8.269,5.764 -0.06,-0.015 -0.097,-0.045 -0.127,-0.082 -2.594,1.159 -5.248,2.041 -7.947,2.691 -0.217,-0.052 -0.389,-0.082 -0.292,0.067 -0.336,0.082 -0.673,0.157 -1.009,0.232 1.757,2.482 4.239,4.187 7.072,4.62 -2.303,-0.658 -4.747,-2.983 -6.056,-4.844 0,0 0,-0.008 -0.007,-0.008 0.097,-0.015 0.194,-0.045 0.292,-0.067 0.149,0.037 0.321,0.082 0.434,0.075 3.955,-0.299 7.573,1.533 9.712,4.852 0.157,0.247 0,0.591 -0.269,0.658 -4.523,1.151 -9.764,-0.83 -11.797,-5.151 -2.37,0.479 -4.762,0.792 -7.177,0.972 2.803,1.787 4.672,5.42 4.665,8.523 0,0.366 -0.516,0.635 -0.778,0.322 -2.25,-2.677 -10.04,-3.925 -8.949,-8.65 -2.579,0.015 -5.166,-0.112 -7.753,-0.307 2.789,1.966 4.702,5.39 5.016,8.642 0.037,0.307 -0.292,0.449 -0.546,0.411 -5.046,-0.68 -9.121,-4.613 -10.048,-9.592 -3.484,-0.411 -6.938,-0.927 -10.354,-1.465 3.058,2.699 4.665,7.431 5.801,10.99 0.135,0.411 -0.351,0.74 -0.703,0.546 -0.037,-0.022 -0.067,-0.037 -0.105,-0.06 v 0.008 c -0.052,0.06 -0.135,-0.008 -0.112,-0.067 -4.239,-2.377 -9.682,-6.235 -7.693,-11.85 0,-0.008 0,-0.008 0,-0.008 -0.105,-0.015 -0.209,-0.037 -0.314,-0.052 -2.901,-0.456 -5.786,-0.882 -8.665,-1.249 2.789,2.258 4.389,5.929 4.232,9.562 -0.008,0.209 -0.187,0.456 -0.426,0.426 -0.03,0 -0.06,-0.007 -0.09,-0.015 -0.135,0.15 -0.404,0.187 -0.553,-0.03 -0.022,-0.022 -0.037,-0.052 -0.052,-0.075 -4.837,-0.949 -8.299,-5.495 -7.865,-10.392 -3.551,-0.336 -7.095,-0.531 -10.609,-0.516 2.983,1.667 5.241,4.747 6.273,7.969 0.209,0.217 0.434,0.426 0.643,0.643 0.299,0.307 0.007,0.725 -0.322,0.718 -0.037,0.262 -0.269,0.456 -0.553,0.381 -4.59,-1.174 -11.169,-3.76 -10.085,-9.607 -8.261,0.441 -16.38,2.206 -24.26,6.265 -0.277,0.142 -0.486,-0.232 -0.239,-0.404 6.742,-4.795 14.802,-6.754 23.093,-7.24 z m 10.9,9.659 c -2.803,-2.714 -5.667,-5.338 -8.665,-7.835 -0.68,4.837 4.747,6.998 8.74,8.089 -0.023,-0.082 -0.045,-0.172 -0.075,-0.254 z m -0.823,-2.048 c -1.428,-2.818 -3.79,-4.837 -6.699,-6.302 -0.127,0 -0.247,0.007 -0.374,0.015 2.431,2.01 4.801,4.096 7.073,6.287 z m 2.31,-14.362 c -3.312,2.52 -6.803,4.717 -10.474,6.669 0.957,-0.03 1.906,-0.045 2.863,-0.037 3.515,-0.92 6.348,-3.208 7.611,-6.632 z m -0.418,-0.598 c -4.448,1.069 -9.121,2.654 -11.095,7.028 3.895,-2.019 7.596,-4.374 11.095,-7.028 z m 9.166,17.606 c 0.359,0.224 1.376,0.845 2.183,1.047 -2.146,-3.125 -4.239,-6.272 -6.497,-9.33 -0.135,2.026 0.441,4.03 1.615,5.712 0.71,1.016 1.637,1.928 2.699,2.571 z m 6.437,-14.63 c -0.202,0.067 -0.411,0.075 -0.635,0.045 0,0.007 0,0.022 -0.008,0.03 -2.198,2.437 -5.951,3.918 -9.233,4.904 0.037,0.015 0.082,0.022 0.12,0.037 4.021,-0.366 7.513,-1.727 9.756,-5.016 z m -3.41,15.64 c 0.015,-0.007 0.045,-0.007 0.06,-0.022 0.381,-0.344 -0.284,-2.505 -0.441,-3.02 -0.329,-1.084 -0.837,-2.116 -1.473,-3.05 -0.845,-1.249 -1.906,-2.243 -3.11,-3.05 -0.471,-0.052 -0.95,-0.105 -1.421,-0.157 2.251,3.011 4.457,6.084 6.385,9.299 z m -1.943,-13.39 c 1.51,-0.762 2.878,-1.802 4.418,-2.467 0.015,-0.015 0.037,-0.022 0.067,-0.03 0.007,0 0.015,-0.008 0.03,-0.008 0.03,-0.015 0.052,-0.007 0.082,-0.007 0.299,0 0.643,-0.142 0.875,-0.322 0.202,-0.157 0.299,-0.359 0.419,-0.561 -4.396,0.262 -9.659,1.047 -11.409,5.577 1.899,-0.582 3.746,-1.277 5.518,-2.182 z m 9.763,4.874 c 3.641,-0.359 6.781,-2.026 8.852,-4.859 -3.633,1.772 -7.379,3.26 -11.259,4.411 0.127,0.037 0.239,0.097 0.366,0.142 0.681,0.097 1.361,0.202 2.041,0.306 z m 4.86,10.661 c -0.127,-0.067 -0.254,-0.127 -0.411,-0.187 -0.105,-0.037 -0.135,-0.135 -0.12,-0.224 -0.172,0.082 -0.404,0.067 -0.546,-0.142 -1.779,-2.669 -3.559,-5.338 -5.338,-8.007 -0.606,4.396 3.117,7.222 6.676,9.293 -0.082,-0.247 -0.171,-0.494 -0.261,-0.733 z m -5.861,-9.3 c 1.839,2.766 3.678,5.54 5.51,8.313 -1.227,-3.259 -2.827,-6.197 -5.51,-8.313 z m 10.145,-7.289 c 0.149,-0.075 0.284,-0.052 0.396,0.015 0.12,-0.209 0.239,-0.419 0.344,-0.636 -4.329,0.523 -9.151,1.458 -11.82,5.099 3.798,-1.234 7.491,-2.699 11.08,-4.478 z m 11.864,0.329 c -0.142,0.075 -0.284,0.149 -0.434,0.224 -0.008,0.015 -0.015,0.037 -0.03,0.06 -2.019,2.774 -5.084,5.054 -8.007,6.99 0.449,0.045 0.905,0.09 1.353,0.135 3.403,-1.369 6.034,-3.791 7.118,-7.409 z m -0.59,16.986 c 0.075,0.015 0.15,0.022 0.217,0.037 -0.576,-3.977 -3.11,-6.654 -6.452,-8.306 -0.546,-0.052 -1.084,-0.12 -1.63,-0.179 2.669,2.713 5.652,5.412 7.865,8.448 z m -1.66,-15.977 c -3.192,1.293 -6.826,2.549 -7.244,5.921 2.631,-1.779 4.859,-3.88 7.244,-5.921 z m -6.706,8.261 c 1.009,3.387 3.551,6.063 6.833,7.267 -2.437,-2.183 -4.62,-4.837 -6.833,-7.267 z m 19.109,-8.44 c -2.983,1.675 -7.297,3.222 -6.721,6.534 2.228,-2.191 4.448,-4.396 6.721,-6.534 z m -5.996,8.492 c -0.688,3.267 3.925,4.785 6.893,6.497 -2.467,-1.906 -4.658,-4.321 -6.893,-6.497 z m 7.768,6.378 c -0.336,-1.637 -1.129,-3.133 -2.31,-4.389 -0.965,-1.032 -2.071,-1.675 -3.267,-2.175 -0.359,0.015 -0.725,0.03 -1.084,0.045 2.272,2.085 4.747,4.156 6.661,6.519 z m -0.763,-14.796 c -2.25,2.303 -4.575,4.545 -6.885,6.796 1.585,-0.561 3.02,-1.181 4.336,-2.46 1.233,-1.203 2.1,-2.698 2.549,-4.336 z m 9.898,-2.594 c -1.488,0.389 -3.125,2.385 -3.932,3.581 -0.964,1.428 -1.555,3.013 -1.802,4.695 2.408,-2.445 4.269,-5.181 5.734,-8.276 z m -0.186,5.069 c 0.463,-0.845 0.77,-1.734 0.927,-2.676 0.075,-0.434 0.12,-0.845 0.12,-1.286 0,-0.523 0.09,-0.927 -0.097,-1.099 -1.301,3.17 -3.245,6.056 -5.674,8.471 0.643,-0.127 1.293,-0.262 1.936,-0.411 1.143,-0.779 2.107,-1.75 2.788,-2.999 z m 5.293,9.151 c 0.105,-0.015 0.202,-0.037 0.307,-0.052 -1.847,-2.549 -4.673,-3.992 -7.805,-4.015 1.914,2.377 4.329,3.103 7.312,3.768 0.171,0.037 0.216,0.172 0.186,0.299 z m 4.179,-9.016 c 0.718,-0.478 1.361,-1.121 1.824,-1.847 0.217,-0.336 0.867,-1.376 0.777,-1.936 -2.048,1.727 -4.299,3.185 -6.661,4.448 0.045,0.135 0.03,0.284 -0.082,0.374 1.465,0.127 2.893,-0.202 4.142,-1.039 z m 2.302,-4.09 c -0.568,-0.15 -1.929,0.135 -2.243,0.209 -0.77,0.187 -1.51,0.516 -2.168,0.95 -1.376,0.89 -2.004,2.041 -2.699,3.387 2.505,-1.324 4.838,-2.879 7.11,-4.546 z"
   id="path79" />

			<path
   style="fill:#cefff1;fill-opacity:0"
   d="m 150.974,158.379 c -0.68,4.837 4.747,6.998 8.74,8.089 -0.022,-0.082 -0.045,-0.172 -0.075,-0.254 -2.804,-2.713 -5.667,-5.338 -8.665,-7.835 z"
   id="path80" />

			<path
   style="fill:#84fedc;fill-opacity:0"
   d="m 152.118,157.863 c -0.127,0 -0.247,0.007 -0.374,0.015 2.43,2.011 4.8,4.097 7.072,6.287 -1.428,-2.818 -3.79,-4.836 -6.698,-6.302 z"
   id="path81" />

			<path
   style="fill:#cefff1;fill-opacity:0"
   d="m 150.652,156.473 c 0.957,-0.03 1.906,-0.045 2.863,-0.037 3.514,-0.919 6.347,-3.207 7.611,-6.631 -3.311,2.519 -6.803,4.717 -10.474,6.668 z"
   id="path82" />

			<path
   style="fill:#84fedc;fill-opacity:0"
   d="m 160.708,149.206 c -4.448,1.069 -9.121,2.654 -11.095,7.028 3.895,-2.019 7.596,-4.374 11.095,-7.028 z"
   id="path83" />

			<path
   style="fill:#cefff1;fill-opacity:0"
   d="m 165.56,158.529 c -0.135,2.026 0.441,4.03 1.615,5.712 0.71,1.017 1.637,1.929 2.699,2.572 0.359,0.224 1.376,0.845 2.183,1.047 -2.146,-3.126 -4.239,-6.273 -6.497,-9.331 z"
   id="path84" />

			<path
   style="fill:#cefff1;fill-opacity:0"
   d="m 166.435,157.161 c 0.037,0.015 0.082,0.022 0.12,0.037 4.022,-0.366 7.513,-1.727 9.756,-5.017 -0.202,0.067 -0.411,0.075 -0.635,0.045 0,0.007 0,0.022 -0.008,0.03 -2.198,2.438 -5.951,3.918 -9.233,4.905 z"
   id="path85" />

			<path
   style="fill:#84fedc;fill-opacity:0"
   d="m 167.937,158.678 c -0.471,-0.052 -0.95,-0.105 -1.421,-0.157 2.25,3.013 4.456,6.086 6.385,9.3 0.015,-0.007 0.045,-0.007 0.06,-0.022 0.381,-0.344 -0.284,-2.505 -0.441,-3.02 -0.329,-1.084 -0.837,-2.116 -1.473,-3.05 -0.845,-1.249 -1.906,-2.243 -3.11,-3.051 z"
   id="path86" />

			<path
   style="fill:#84fedc;fill-opacity:0"
   d="m 176.849,151.038 c -4.396,0.262 -9.659,1.047 -11.409,5.577 1.899,-0.583 3.745,-1.279 5.517,-2.183 1.51,-0.762 2.878,-1.802 4.418,-2.467 0.015,-0.015 0.037,-0.022 0.067,-0.03 0.007,0 0.015,-0.008 0.03,-0.008 0.03,-0.015 0.052,-0.007 0.082,-0.007 0.299,0 0.643,-0.142 0.875,-0.322 0.203,-0.157 0.3,-0.358 0.42,-0.56 z"
   id="path87" />

			<path
   style="fill:#cefff1;fill-opacity:0"
   d="m 178.314,158.858 c 0.127,0.037 0.239,0.097 0.366,0.142 0.68,0.097 1.361,0.202 2.041,0.307 3.641,-0.359 6.781,-2.026 8.852,-4.859 -3.633,1.771 -7.379,3.258 -11.259,4.41 z"
   id="path88" />

			<path
   style="fill:#cefff1;fill-opacity:0"
   d="m 179.166,161.407 c -0.606,4.396 3.117,7.222 6.676,9.293 -0.082,-0.247 -0.172,-0.493 -0.262,-0.733 -0.127,-0.067 -0.254,-0.127 -0.411,-0.187 -0.105,-0.037 -0.135,-0.135 -0.12,-0.224 -0.172,0.082 -0.404,0.067 -0.546,-0.142 -1.778,-2.669 -3.557,-5.338 -5.337,-8.007 z"
   id="path89" />

			<path
   style="fill:#84fedc;fill-opacity:0"
   d="m 179.72,160.667 c 1.839,2.766 3.678,5.54 5.51,8.313 -1.227,-3.259 -2.827,-6.197 -5.51,-8.313 z"
   id="path90" />

			<path
   style="fill:#84fedc;fill-opacity:0"
   d="m 190.605,152.757 c -4.329,0.523 -9.151,1.458 -11.82,5.099 3.798,-1.234 7.491,-2.699 11.08,-4.478 0.149,-0.075 0.284,-0.052 0.396,0.015 0.12,-0.21 0.239,-0.419 0.344,-0.636 z"
   id="path91" />

			<path
   style="fill:#cefff1;fill-opacity:0"
   d="m 193.259,160.981 c 0.449,0.045 0.905,0.09 1.353,0.135 3.402,-1.368 6.033,-3.79 7.117,-7.409 -0.142,0.075 -0.284,0.149 -0.434,0.224 -0.008,0.015 -0.015,0.037 -0.03,0.06 -2.018,2.773 -5.083,5.054 -8.006,6.99 z"
   id="path92" />

			<path
   style="fill:#84fedc;fill-opacity:0"
   d="m 194.904,162.424 c -0.546,-0.052 -1.084,-0.12 -1.63,-0.179 2.669,2.714 5.652,5.413 7.865,8.448 0.075,0.015 0.15,0.022 0.217,0.037 -0.576,-3.977 -3.111,-6.654 -6.452,-8.306 z"
   id="path93" />

			<path
   style="fill:#84fedc;fill-opacity:0"
   d="m 199.479,154.716 c -3.192,1.293 -6.826,2.549 -7.244,5.921 2.631,-1.779 4.859,-3.88 7.244,-5.921 z"
   id="path94" />

			<path
   style="fill:#cefff1;fill-opacity:0"
   d="m 192.773,162.977 c 1.009,3.387 3.551,6.063 6.833,7.267 -2.437,-2.183 -4.62,-4.837 -6.833,-7.267 z"
   id="path95" />

			<path
   style="fill:#84fedc;fill-opacity:0"
   d="m 211.882,154.537 c -2.983,1.675 -7.297,3.222 -6.721,6.534 2.228,-2.191 4.448,-4.396 6.721,-6.534 z"
   id="path96" />

			<path
   style="fill:#cefff1;fill-opacity:0"
   d="m 205.886,163.029 c -0.688,3.267 3.925,4.785 6.893,6.497 -2.467,-1.906 -4.658,-4.321 -6.893,-6.497 z"
   id="path97" />

			<path
   style="fill:#84fedc;fill-opacity:0"
   d="m 208.076,162.843 c -0.359,0.015 -0.725,0.03 -1.084,0.045 2.273,2.086 4.747,4.157 6.661,6.519 -0.336,-1.637 -1.129,-3.133 -2.31,-4.389 -0.964,-1.032 -2.07,-1.674 -3.267,-2.175 z"
   id="path98" />

			<path
   style="fill:#cefff1;fill-opacity:0"
   d="m 206.006,161.407 c 1.585,-0.561 3.02,-1.181 4.336,-2.46 1.233,-1.204 2.101,-2.699 2.549,-4.336 -2.25,2.303 -4.575,4.546 -6.885,6.796 z"
   id="path99" />

			<path
   style="fill:#cefff1;fill-opacity:0.06451613"
   d="m 218.894,161.392 c -0.336,0.082 -0.673,0.157 -1.009,0.232 1.757,2.482 4.239,4.187 7.072,4.62 -2.303,-0.658 -4.747,-2.983 -6.056,-4.844 10e-4,0 10e-4,-0.008 -0.007,-0.008 z"
   id="path100" />

			<path
   style="fill:#84fedc;fill-opacity:0"
   d="m 218.857,155.598 c -0.964,1.428 -1.555,3.013 -1.802,4.695 2.407,-2.445 4.269,-5.181 5.734,-8.276 -1.487,0.389 -3.125,2.385 -3.932,3.581 z"
   id="path101" />

			<path
   style="fill:#cefff1;fill-opacity:0"
   d="m 217.878,160.495 c 0.643,-0.127 1.293,-0.262 1.936,-0.411 1.144,-0.777 2.108,-1.749 2.789,-2.998 0.463,-0.845 0.77,-1.734 0.927,-2.676 0.075,-0.434 0.12,-0.845 0.12,-1.286 0,-0.523 0.09,-0.927 -0.097,-1.099 -1.302,3.17 -3.246,6.055 -5.675,8.47 z"
   id="path102" />

			<path
   style="fill:#3c3c3b"
   d="m 219.186,161.325 c -0.217,-0.052 -0.389,-0.082 -0.292,0.067 0.098,-0.015 0.195,-0.045 0.292,-0.067 z"
   id="path103" />

			<path
   style="fill:#84fe6a;fill-opacity:0"
   d="m 220.397,162.17 c 1.914,2.377 4.329,3.103 7.312,3.768 0.172,0.037 0.217,0.172 0.187,0.299 0.105,-0.015 0.202,-0.037 0.307,-0.052 -1.847,-2.55 -4.673,-3.993 -7.806,-4.015 z"
   id="path104" />

			<path
   style="fill:#cefff1;fill-opacity:0"
   d="m 228.015,157.886 c 0.045,0.135 0.03,0.284 -0.082,0.374 1.465,0.127 2.893,-0.202 4.142,-1.039 0.718,-0.478 1.361,-1.121 1.824,-1.847 0.217,-0.336 0.867,-1.376 0.777,-1.936 -2.048,1.727 -4.298,3.184 -6.661,4.448 z"
   id="path105" />

			<path
   style="fill:#84fedc;fill-opacity:0"
   d="m 229.966,154.29 c -1.376,0.89 -2.004,2.041 -2.699,3.387 2.504,-1.323 4.837,-2.878 7.11,-4.546 -0.568,-0.15 -1.929,0.135 -2.243,0.209 -0.769,0.187 -1.51,0.516 -2.168,0.95 z"
   id="path106" />

		</g>

	</g>
  </g>
</svg>
