<?xml version="1.0" encoding="utf-8"?>
<!-- Generator: Adobe Illustrator 27.0.0, SVG Export Plug-In . SVG Version: 6.00 Build 0)  -->
<svg version="1.1" xmlns="http://www.w3.org/2000/svg" xmlns:xlink="http://www.w3.org/1999/xlink" x="0px" y="0px"
	 viewBox="0 0 2500 2000" style="enable-background:new 0 0 2500 2000;" xml:space="preserve">
<style type="text/css">
	.st0{fill:none;}
	.st1{fill:#400705;}
	.st2{fill:#FFFFFF;}
	.st3{opacity:0.64;}
	.st4{fill:url(#New_Pattern);}
</style>
<pattern  x="7.72" y="9.65" width="451.88" height="766.21" patternUnits="userSpaceOnUse" id="New_Pattern" viewBox="156.67 -848.14 451.88 766.21" style="overflow:visible;">
	<g>
		<rect x="156.67" y="-848.14" class="st0" width="451.88" height="766.21"/>
		<g>
			<path class="st1" d="M542-139.94c-19.16-1.24-37.99-6.62-54.88-15.76c-2.06-1.12-4.09-2.29-6.08-3.51
				c-2.08-1.28-4.26-2.63-5.4-4.88c-1.14-2.25-1.25-4.84-1.4-7.32c-0.14-2.44-0.17-4.88-0.09-7.32c0.31-9.22,2.16-18.37,5.46-26.99
				c-1.35-0.37-2.67-0.82-3.95-1.33c-7.91-3.17-14.91-8.61-19.29-15.99c-4.62-7.8-5.48-17.03-3.46-25.77
				c1.01-4.36,2.72-8.58,4.81-12.53c2.05-3.88,4.49-7.71,7.55-10.88c5.46-5.65,12.81-8.8,20.6-9.39c7.79-0.59,15.64,1.46,22.61,4.82
				c1.75,0.84,3.44,1.78,5.08,2.81c1.69,1.06,3.49,2.17,5.58,1.9c1.42-0.18,3.04-1.53,4.3-2.62c1.67-1.46,3.35-2.91,5.23-4.09
				c7.32-4.59,16.64-5.81,24.97-3.64c8.3,2.16,15.27,7.91,19.09,15.58c3.05,6.12,4.24,13.19,3.07,19.92
				c5.45-0.73,11.09-0.14,16.25,1.69c11.97,4.26,21.35,14.94,20.95,28.1c-0.33,10.92-6.88,21.95-17.21,25.92
				c1.44,4.76,1.5,9.82,0.17,14.68c-2.94,10.74-12.08,19.03-23.41,19.46c-3.81,0.14-7.57-0.57-11.05-1.97
				c0.36,0.74,0.4,1.65-0.15,2.58c-1.31,2.23-2.15,4.57-2.63,7.11c-0.44,2.33-1.5,4.49-3.16,6.21c-1.54,1.6-3.64,2.78-5.83,3.2
				C547.22-139.46,544.54-139.78,542-139.94z M482.18-211.08c6.16,1.49,12.5,1.01,17.86-2.5c0.25-0.96,0.93-1.76,2-2.06
				c1.45-0.4,3.29,0.49,3.6,2.04c0.89,4.43,1.91,9.42,5.11,12.81c3.11,3.31,7.53,3.34,11.27,1.14c2.15-1.27,5.07,0.84,4.3,3.3
				c-0.09,0.3-0.18,0.6-0.24,0.9c-0.03,0.13-0.05,0.26-0.07,0.4c-0.02,0.59-0.06,1.17-0.03,1.76c0.01,0.23,0.04,0.46,0.06,0.69
				c0.01,0.05,0.07,0.48,0.1,0.63c0.14,0.69,0.32,1.37,0.54,2.04c0.11,0.33,0.23,0.64,0.34,0.97c0.05,0.13,0.07,0.2,0.08,0.23
				c0.01,0.02,0.03,0.06,0.07,0.15c0.26,0.57,0.53,1.13,0.83,1.68c0.35,0.64,0.73,1.27,1.14,1.87c0.15,0.23,0.31,0.46,0.48,0.68
				c0.1,0.14,0.2,0.27,0.3,0.41c0.03,0.03,0.05,0.07,0.09,0.11c1.85,2.26,3.54,3.77,5.83,5.07c1.42,0.81,1.92,1.03,3.49,1.47
				c0.37,0.1,0.74,0.19,1.11,0.27c0.16,0.03,0.65,0.12,0.75,0.14c0.1,0.01,0.6,0.06,0.77,0.07c0.34,0.02,0.68,0.03,1.03,0.03
				c1.64,0,2.31-0.1,3.92-0.57c1.58-0.46,2.83-1.08,4.33-2.01c3.21-1.98,6.15,3.08,2.95,5.05c-0.41,0.25-0.83,0.49-1.25,0.72
				c1.91,3.44,5.05,6.29,8.68,8.19c7.67,4,17.16,3.23,23.32-3.1c2.97-3.05,4.9-6.87,5.78-11.17c0.79-3.82,0.43-8.4-1.21-11.95
				c-0.76-1.63-0.24-3.83,1.75-4.3c5.33-1.25,9.59-4.72,12.39-9.41c2.53-4.22,3.75-8.95,3.51-13.87c-0.07-1.52-0.15-2.09-0.5-3.56
				c-0.14-0.61-0.31-1.22-0.5-1.81c-0.1-0.3-0.2-0.6-0.31-0.89c0.01,0.03-0.18-0.45-0.22-0.56c-1.07-2.48-2.53-4.64-4.22-6.47
				c-7.2-7.75-18.81-10.71-28.81-7.82c-2.04,0.59-4.35-1.47-3.6-3.6c0.56-1.59,1.08-3.64,1.26-5.04c0.87-7-1.18-14.43-5.62-19.82
				c-4.76-5.79-11.73-8.85-19.11-8.86c-3.6-0.01-7.24,0.67-10.52,2.11c-1.71,0.75-3.35,1.69-4.86,2.8c-1.55,1.14-3.02,2.63-4.6,3.84
				c-1.79,1.37-3.75,2.37-6.02,2.61c-2.38,0.25-4.85-0.41-6.96-1.49c-1.68-0.86-3.22-2-4.88-2.9c-1.49-0.8-3.19-1.62-4.54-2.16
				c-3.27-1.31-6.72-2.3-10.22-2.76c-0.11-0.01-0.36-0.04-0.43-0.05c-0.22-0.02-0.43-0.05-0.65-0.07c-0.38-0.04-0.76-0.07-1.13-0.09
				c-0.86-0.05-1.72-0.08-2.58-0.07c-1.67,0.01-3.36,0.16-4.62,0.38c-6.64,1.17-12.36,4.56-16.4,10.08
				c-4.6,6.3-8.35,14.07-9.21,21.76c-0.87,7.8,1.12,15.47,6.31,21.56C468.87-216.57,475.23-212.76,482.18-211.08z M533.25-146.68
				c1.98-7.92,3.08-16.04,3.26-24.21c0.01-0.45,0.19-0.79,0.45-1.03c-4.92-1.61-9.13-5.02-12.24-9.24
				c-2.37-3.21-4.28-7.38-4.6-11.54c-4.44,0.98-9.15,0.05-12.71-3.16c-3.36-3.03-5.16-7.23-6.34-11.55
				c-0.7,0.37-1.42,0.71-2.16,1.02c-4.25,1.77-8.91,2.25-13.49,1.78c-3.51,8.98-5.42,18.52-5.47,28.17
				c-0.01,2.29,0.07,4.58,0.26,6.85c0.15,1.77,0.48,3.16,2,4.2c3.02,2.05,6.24,3.83,9.5,5.51c-0.01-1.87,0-3.74,0.05-5.61
				c0.26-9.76,1.34-19.5,3.19-29.08c0.15-0.78,1.08-1.22,1.8-1.02c0.8,0.22,1.17,1.02,1.02,1.8c-0.52,2.69-0.98,5.38-1.37,8.09
				c-1.31,9.03-1.87,18.18-1.75,27.3c5.36,2.62,10.9,4.85,16.58,6.69c0.04-1.9,0.09-3.79,0.18-5.69c0.44-9.3,1.5-18.56,3.14-27.72
				c0.14-0.78,1.09-1.22,1.8-1.02c0.81,0.22,1.16,1.02,1.02,1.8c-0.45,2.54-0.86,5.09-1.23,7.64c-1.22,8.57-1.87,17.23-2.01,25.89
				c1.32,0.39,2.64,0.77,3.97,1.12C523.09-148.39,528.15-147.38,533.25-146.68z M536.18-146.32c2.59,0.29,5.19,0.51,7.8,0.64
				c1.15,0.06,2.31,0.13,3.46,0.12c0.77,0,1.04-0.04,1.86-0.32c0.97-0.32,2.19-1.27,2.78-2.23c0.89-1.46,1.01-3.27,1.54-5.1
				c0.62-2.16,1.54-4.26,2.69-6.2c0.44-0.75,1.05-1.16,1.71-1.32c-4.41-2.52-8.12-6.22-10.5-10.76c-1.82,0.44-3.69,0.65-5.57,0.53
				c-0.87-0.06-1.72-0.17-2.55-0.33c0.03,0.12,0.05,0.25,0.04,0.39C539.25-162.62,538.15-154.36,536.18-146.32z"/>
			<path class="st1" d="M502.32-219.51c-0.25-7.01,1.86-13.92,5.95-19.63c0.46-0.64,0.11-1.63-0.52-2c-0.74-0.43-1.54-0.12-2,0.52
				c-4.36,6.08-6.61,13.62-6.35,21.1C499.46-217.63,502.39-217.62,502.32-219.51z"/>
			<path class="st1" d="M528.84-202.63c0.73,0.39,1.55,0.16,2-0.52c1.43-2.17,2.87-4.34,4.3-6.51c0.42-0.64,0.15-1.65-0.52-2
				c-0.73-0.39-1.55-0.16-2,0.52c-1.43,2.17-2.87,4.34-4.3,6.51C527.9-203.99,528.17-202.99,528.84-202.63z"/>
			<path class="st1" d="M560.1-181.1c6.11-4.42,10.61-10.84,12.56-18.14c0.49-1.82-2.33-2.6-2.82-0.78
				c-1.74,6.53-5.73,12.43-11.22,16.39c-0.64,0.46-0.95,1.27-0.52,2C558.47-181,559.45-180.64,560.1-181.1z"/>
			<path class="st1" d="M571.58-186.55c-0.36-0.08-0.81-0.08-1.13,0.15c-0.83,0.59-1.66,1.17-2.49,1.76
				c-0.17,0.09-0.31,0.22-0.41,0.38c-0.13,0.14-0.22,0.31-0.26,0.5c-0.1,0.35-0.05,0.82,0.15,1.13c0.2,0.31,0.5,0.59,0.87,0.67
				c0.36,0.08,0.81,0.08,1.13-0.15c0.83-0.59,1.66-1.17,2.49-1.76c0.17-0.09,0.31-0.22,0.41-0.38c0.13-0.14,0.22-0.31,0.26-0.5
				c0.1-0.35,0.05-0.82-0.15-1.13C572.25-186.19,571.95-186.47,571.58-186.55z"/>
			<path class="st1" d="M481.52-265.53c-0.44-0.68-1.28-0.92-2-0.52c-2.29,1.24-4.57,2.48-6.86,3.72c-0.67,0.37-0.94,1.35-0.52,2
				c0.44,0.68,1.28,0.92,2,0.52c2.29-1.24,4.57-2.48,6.86-3.72C481.67-263.89,481.94-264.88,481.52-265.53z"/>
			<path class="st1" d="M482.43-257.16c0.04-0.19,0.03-0.39-0.03-0.58c-0.11-0.35-0.33-0.7-0.67-0.87c-0.12-0.05-0.23-0.1-0.35-0.15
				c-0.26-0.07-0.52-0.07-0.78,0c-0.62,0.11-1.24,0.23-1.86,0.34c-0.19,0.05-0.36,0.13-0.5,0.26c-0.16,0.1-0.28,0.24-0.38,0.41
				c-0.11,0.17-0.16,0.35-0.17,0.54c-0.04,0.19-0.03,0.39,0.03,0.58c0.11,0.35,0.33,0.7,0.67,0.87c0.12,0.05,0.23,0.1,0.35,0.15
				c0.26,0.07,0.52,0.07,0.78,0c0.62-0.11,1.24-0.23,1.86-0.34c0.19-0.05,0.36-0.13,0.5-0.26c0.16-0.1,0.28-0.24,0.38-0.41
				C482.36-256.78,482.42-256.97,482.43-257.16z"/>
			<path class="st1" d="M578.29-213.63c0.8-0.04,1.45-0.64,1.46-1.46c0.03-2.41,0.05-4.82,0.08-7.23c0.01-0.77-0.68-1.5-1.46-1.46
				c-0.8,0.04-1.45,0.64-1.46,1.46c-0.03,2.41-0.05,4.82-0.08,7.23C576.82-214.33,577.5-213.6,578.29-213.63z"/>
			<path class="st1" d="M584.05-213.11c0.79,0.18,1.56-0.24,1.8-1.02c0.96-3.12,1.12-6.4,0.54-9.6c-0.13-0.75-1.1-1.25-1.8-1.02
				c-0.81,0.26-1.17,0.99-1.02,1.8c0.12,0.66,0.17,1.1,0.22,1.87c0.04,0.73,0.04,1.46-0.01,2.19c-0.08,1.34-0.32,2.58-0.76,3.99
				C582.8-214.18,583.29-213.28,584.05-213.11z"/>
			<path class="st1" d="M480.72-92.16c0.19,0.14,0.29,0.36,0.29,0.59c0,0.23-0.11,0.45-0.3,0.59c-4.1,3.05-7.27,7.15-9.16,11.88
				c-0.11,0.28-0.41,0.45-0.68,0.46c-0.3,0-0.57-0.18-0.68-0.46c-1.9-4.73-5.08-8.84-9.19-11.88c-0.19-0.14-0.3-0.36-0.3-0.59
				c0-0.23,0.11-0.45,0.3-0.59c4.11-3.05,7.29-7.17,9.19-11.89c0.11-0.28,0.38-0.46,0.68-0.46c0,0,0,0,0,0
				c0.3,0,0.57,0.18,0.68,0.46C473.45-99.34,476.61-95.23,480.72-92.16z M479.09-91.58c-3.51-2.8-6.31-6.35-8.2-10.38
				c-1.9,4.03-4.72,7.58-8.23,10.38c3.51,2.78,6.32,6.32,8.23,10.36C472.78-85.25,475.58-88.79,479.09-91.58z"/>
			<path class="st1" d="M437.94-89.05c-1.94,1.44-3.44,3.38-4.33,5.61c-0.11,0.28-0.38,0.46-0.68,0.46c0,0,0,0,0,0
				c-0.3,0-0.57-0.18-0.68-0.46c-0.9-2.24-2.4-4.18-4.34-5.61c-0.19-0.14-0.3-0.36-0.3-0.59c0-0.23,0.11-0.45,0.29-0.59
				c1.94-1.44,3.44-3.38,4.34-5.62c0.11-0.28,0.4-0.46,0.68-0.46c0.3,0,0.57,0.18,0.68,0.46c0.89,2.23,2.39,4.17,4.33,5.62
				c0.18,0.14,0.29,0.36,0.29,0.59C438.23-89.4,438.12-89.18,437.94-89.05z M436.33-89.63c-1.39-1.18-2.54-2.61-3.4-4.21
				c-0.86,1.6-2.01,3.03-3.41,4.21c1.39,1.18,2.55,2.6,3.41,4.2C433.78-87.03,434.94-88.46,436.33-89.63z"/>
			<path class="st1" d="M430.08-150.86c0-2.86,2.33-5.19,5.19-5.19c2.86,0,5.18,2.33,5.18,5.19c0,2.86-2.33,5.19-5.18,5.19
				C432.41-145.67,430.08-148,430.08-150.86z M433.01-150.86c0,1.25,1.01,2.26,2.26,2.26c1.25,0,2.26-1.01,2.26-2.26
				s-1.01-2.26-2.26-2.26C434.02-153.12,433.01-152.11,433.01-150.86z"/>
			<path class="st1" d="M613.41-119.64c0,2.86-2.33,5.18-5.18,5.18s-5.19-2.33-5.19-5.18c0-2.86,2.33-5.19,5.19-5.19
				S613.41-122.49,613.41-119.64z M610.49-119.64c0-1.25-1.01-2.26-2.26-2.26s-2.26,1.01-2.26,2.26c0,1.25,1.01,2.26,2.26,2.26
				S610.49-118.39,610.49-119.64z"/>
		</g>
		<g>
			<path class="st1" d="M319.07-127.11c-2.38,13.09-7.3,25.91-15.13,36.72c-3.54,4.82-7.83,8.97-12.89,12.18
				c-4.61,2.93-9.76,4.93-15.06,5.83c-0.02,0.14-0.03,0.28-0.07,0.41c-1.67,5.48-2.85,11.1-4.45,16.6
				c4.78,4.95,6.07,12.37,5.45,19.01c-0.63,6.81-2.83,13.31-5.44,19.6c-2.41,5.8-5.61,12.01-11.52,14.91
				c-5.47,2.68-12.01,2.26-17.53-0.05c-4.93-2.07-9.6-5.87-11.13-11.19c-1.06-3.7-0.98-7.8-0.72-11.6c0.33-4.95,1.11-9.9,2.32-14.71
				c1.15-4.59,2.7-9.21,5.05-13.34c1.91-3.34,4.58-6.61,8.39-7.77c0.17-0.05,0.34-0.08,0.5-0.1c1.47-5.49,3.21-10.91,4.1-16.53
				c-8.03-4.89-13.96-12.57-17.36-21.46c-5.18-13.56-3.87-28.19-0.31-41.96c3.05-11.78,7.68-23.46,15.25-33.09
				c5.43-6.9,15.28-15.58,24.39-9.53c1.92,1.27,3.45,2.89,4.68,4.71c1.52-1.32,3.17-2.44,5.01-3.16c3.83-1.51,7.75-0.36,10.75,2.28
				c1.98,1.75,3.46,3.99,4.68,6.36c1.51-0.86,3.13-1.5,4.85-1.78c4.6-0.76,9.34,0.86,12.36,4.46c2.85,3.4,4.22,7.78,4.9,12.1
				C321.74-148,320.91-137.2,319.07-127.11z M280.33-172.87c0.62,1.79,1.07,3.65,1.39,5.5c0.72,4.08,1.16,8.21,1.41,12.35
				c0.11-0.2,0.21-0.4,0.32-0.6c2.39-4.34,5.08-8.59,8.42-12.26c0.46-0.5,0.94-0.99,1.43-1.47c-0.16-0.33-0.31-0.66-0.48-0.99
				c-0.42-0.79-0.88-1.56-1.38-2.31c-0.18-0.27-0.38-0.54-0.57-0.8c0.01,0.04-0.54-0.65-0.66-0.77c-0.29-0.32-0.6-0.62-0.92-0.91
				c-0.1-0.09-0.22-0.18-0.32-0.27c-0.01-0.01-0.01-0.02-0.03-0.03c-0.01-0.01-0.02-0.01-0.03-0.02c-0.28-0.17-0.55-0.37-0.84-0.53
				c-0.13-0.07-0.26-0.13-0.39-0.2c-0.34-0.09-0.7-0.19-1.04-0.29c-0.01,0-0.01,0-0.01,0c-0.12,0.01-0.26-0.01-0.39-0.01
				c-0.18,0-0.35,0.02-0.53,0.02c-0.38,0.09-0.76,0.22-1.13,0.31c-0.04,0.01-0.06,0.01-0.08,0.02c-0.02,0.01-0.04,0.02-0.07,0.04
				c-0.22,0.12-0.44,0.22-0.66,0.34c-0.39,0.22-0.76,0.46-1.12,0.71c-0.05,0.04-0.1,0.07-0.13,0.09c-0.23,0.18-0.45,0.37-0.66,0.56
				c-0.41,0.37-0.81,0.75-1.19,1.15C280.55-173.12,280.44-172.99,280.33-172.87z M279.2-98.52c4.45-2.19,7.55-7.17,9.83-11.32
				c5.26-9.57,7.93-20.76,8.69-31.61c0.54-7.6,0.1-14.76-2.09-21.9c-2.41,2.72-4.31,5.72-6.24,9.08c-1.93,3.36-3.63,6.83-5.35,10.3
				c-0.22,0.45-0.45,0.9-0.67,1.36c-0.08,6.85-0.45,13.71-1.09,20.52c-0.35,3.76-0.83,7.51-1.07,11.27
				c-0.16,2.53-0.01,5.06-0.37,7.58C280.61-101.56,280.09-99.93,279.2-98.52z M275.24-166.81c-3.41,4.61-6.3,9.61-8.62,14.86
				c-4.53,10.26-6.71,21.6-6.36,32.8c0.05,1.47,0.13,2.93,0.27,4.39c0.06,0.66,0.13,1.33,0.21,1.99c0.01,0.1,0.02,0.18,0.03,0.24
				c0.01,0.03,0.01,0.07,0.02,0.12c0.03,0.17,0.06,0.34,0.09,0.51c0.19,1.04,0.45,2.06,0.76,3.06c0.16,0.51,0.33,1.01,0.52,1.5
				c0.05,0.13,0.1,0.26,0.15,0.39c0.02,0.03,0.23,0.53,0.23,0.54c0.45,0.97,0.95,1.92,1.54,2.82c0.62,0.95,0.63,1,1.45,1.85
				c0.33,0.34,0.67,0.67,1.04,0.97c0.08,0.05,0.38,0.27,0.41,0.29c0.22,0.14,0.44,0.27,0.66,0.39c-0.15-0.76-0.27-1.53-0.37-2.29
				c-0.91-7.16,0.09-14.46,2.07-21.36c2.02-7.05,5.05-13.79,8.27-20.37c0.02-0.04,0.04-0.07,0.05-0.11
				c0.04-6.99-0.34-13.97-1.45-20.8c-0.13-0.82-0.28-1.64-0.45-2.47C275.59-167.27,275.41-167.04,275.24-166.81z M272.78-108.26
				c-0.02,2.39-0.03,5.11,0.64,7.5c0.15-0.1,0.29-0.21,0.4-0.32c0.1-0.1,0.2-0.2,0.29-0.31c0.03-0.04,0.05-0.08,0.09-0.14
				c0.13-0.21,0.25-0.42,0.36-0.64c0.03-0.05,0.04-0.08,0.06-0.1c0.02-0.05,0.03-0.08,0.05-0.15c0.1-0.28,0.18-0.57,0.26-0.86
				c0.28-1.1,0.27-1.37,0.33-2.62c0.11-2.48,0.1-4.93,0.32-7.4c0.32-3.5,0.71-7,1.01-10.51c0.13-1.46,0.24-2.93,0.36-4.4
				C274.54-121.78,272.85-115.15,272.78-108.26z M271.22-39.63c-0.02-2.95-0.49-6-1.83-8.65c-1.06-2.11-2.54-3.71-4.42-4.92
				c-2.18-1.4-4.27-2.12-6.92-2.61c-1.08-0.2-2.09-0.3-3.44-0.33c-0.64-0.01-1.28,0-1.91,0.03c-0.31,0.02-0.63,0.04-0.94,0.07
				c0,0-1.01,0.11-0.45,0.04c-0.43,0.06-0.86,0.05-1.26-0.01c-0.2,0.05-0.41,0.07-0.62,0.08c-0.33,0.47-0.83,0.86-1.53,1.07
				c-0.06,0.02-0.12,0.04-0.18,0.06c0.03-0.01-0.1,0.03-0.22,0.08c-0.07,0.03-0.14,0.05-0.22,0.08c0.08-0.02,0.13-0.04,0.18-0.06
				c-0.03,0.01-0.06,0.03-0.08,0.04c-0.35,0.2-0.68,0.42-1.02,0.63c0,0,0,0-0.01,0.01c-0.01,0.01-0.02,0.02-0.03,0.03
				c-0.11,0.11-0.23,0.2-0.35,0.31c-0.33,0.3-0.65,0.63-0.94,0.96c-0.17,0.2-0.34,0.4-0.51,0.6c0,0,0,0-0.01,0.01
				c-0.27,0.39-0.55,0.77-0.8,1.17c-0.55,0.86-1.04,1.74-1.5,2.65c-0.26,0.52-0.51,1.05-0.75,1.58c-0.07,0.16-0.14,0.31-0.2,0.47
				c0,0.01,0,0.01-0.01,0.02c-0.1,0.24-0.2,0.49-0.29,0.73c-0.43,1.09-0.82,2.2-1.18,3.32c-0.75,2.34-1.37,4.73-1.88,7.13
				c-0.24,1.12-0.45,2.24-0.64,3.37c-0.09,0.56-0.18,1.12-0.27,1.68c-0.03,0.21-0.06,0.42-0.09,0.63c-0.01,0.09-0.06,0.49-0.07,0.53
				c-0.25,2.01-0.42,4.03-0.49,6.06c-0.06,1.82-0.05,3.65,0.12,5.46c0.01,0.13,0.03,0.25,0.04,0.38c0,0.05,0.02,0.2,0.03,0.31
				c0,0.03,0.01,0.07,0.01,0.1c0-0.04-0.01-0.06-0.01-0.09c0,0.02,0.01,0.05,0.01,0.06c0.05,0.29,0.1,0.59,0.16,0.88
				c0.12,0.6,0.31,1.16,0.48,1.74c0,0.01,0,0.01,0,0.02c0,0,0,0,0,0c0.14,0.27,0.26,0.54,0.41,0.8c0.15,0.26,0.3,0.52,0.47,0.77
				c-0.01-0.01,0.32,0.45,0.33,0.49c0.66,0.85,1.46,1.62,2.3,2.3c0.28,0.22,0.23,0.18,0.67,0.49c0.26,0.18,0.53,0.35,0.8,0.52
				c0.46,0.28,0.93,0.54,1.4,0.78c1.1,0.56,1.91,0.86,3.24,1.24c2.3,0.65,4.26,0.88,6.81,0.61c0.36-0.04,0.41-0.05,0.14-0.02
				c0.2-0.03,0.4-0.07,0.6-0.11c0.3-0.06,0.59-0.13,0.88-0.21c0.29-0.08,0.57-0.16,0.86-0.26c-0.04,0.01,0.5-0.19,0.55-0.2
				c1-0.43,2.11-1.13,2.78-1.7c2.58-2.18,4.31-5.13,5.71-8.23c-0.08-0.05-0.17-0.09-0.23-0.16c-1.88-2.02-4.11-3.66-6.27-5.37
				c-0.64-0.51-0.49-1.54,0-2.07c0.25-0.27,0.68-0.43,1.03-0.43c0.42,0,0.72,0.18,1.03,0.43c1.92,1.53,3.9,3.01,5.64,4.74
				c0.27-0.68,0.53-1.36,0.79-2.03c-2.16-2.12-4.17-4.37-6.54-6.27c-0.64-0.51-0.49-1.54,0-2.07c0.57-0.62,1.47-0.48,2.07,0
				c2.01,1.62,3.77,3.49,5.58,5.32c0.23-0.65,0.45-1.31,0.67-1.97c-2.42-2.3-4.85-4.23-7.68-6.03c-0.69-0.44-0.91-1.28-0.52-2
				c0.36-0.68,1.35-0.94,2-0.52c2.52,1.6,4.9,3.42,7.13,5.42C270.68-32.92,271.24-36.25,271.22-39.63z M254.28-62
				c4.16,0.04,8.44,0.97,12.15,2.92c1.16-4.24,2.16-8.53,3.37-12.76c-4.52,0.02-9.04-0.79-13.35-2.53
				c-0.02-0.01-0.04-0.02-0.06-0.03c-0.76,4.2-1.95,8.3-3.1,12.41C253.62-61.99,253.95-62,254.28-62z M314.78-154.34
				c-0.12-1.27-0.17-1.66-0.32-2.59c-0.16-0.97-0.35-1.93-0.59-2.89c-0.25-1.01-0.55-2.02-0.92-2.99c-0.04-0.1-0.07-0.19-0.11-0.29
				c-0.02-0.03-0.19-0.43-0.21-0.47c-0.18-0.39-0.38-0.77-0.59-1.14c-0.25-0.44-0.53-0.85-0.8-1.27c-0.03-0.05-0.05-0.08-0.07-0.11
				c-0.02-0.03-0.04-0.04-0.07-0.08c-0.11-0.12-0.21-0.25-0.32-0.37c-0.27-0.3-0.56-0.57-0.85-0.86c-0.05-0.04-0.29-0.24-0.36-0.29
				c-0.1-0.07-0.19-0.14-0.29-0.2c-0.41-0.27-0.84-0.5-1.28-0.71c-0.01,0-0.01,0-0.01-0.01c-0.03-0.01-0.05-0.01-0.1-0.03
				c-0.25-0.07-0.49-0.16-0.74-0.23c-0.15-0.04-0.86-0.18-0.95-0.21c-0.36-0.04-0.72-0.06-1.07-0.06c-0.29,0-0.57,0.02-0.86,0.04
				c-0.02,0-0.02,0-0.04,0c-0.01,0-0.02,0-0.03,0.01c-0.4,0.09-0.8,0.17-1.19,0.28c-0.13,0.04-0.74,0.26-0.85,0.29
				c-0.42,0.18-0.83,0.39-1.22,0.61c-0.19,0.11-0.37,0.23-0.55,0.35c1.08,2.91,1.92,5.92,2.47,8.97
				c2.06,11.51,0.75,23.82-2.25,35.05c-1.54,5.75-3.65,11.43-6.52,16.65c-3.02,5.5-7.18,11.37-13.12,13.95
				c-3.32,1.44-7.14,1.59-10.03-0.83c-0.53,0.05-1.06,0.08-1.58,0.04c-5-0.33-8.75-3.97-11.06-8.17c-2.56-4.63-3.42-9.64-3.75-14.87
				c-0.4-6.26,0.03-12.54,1.09-18.72c2.12-12.31,7.15-24.24,14.57-34.29c1.03-1.4,2.11-2.88,3.28-4.32
				c-0.99-1.73-2.32-3.31-3.75-4.2c-0.32-0.2-0.65-0.38-0.99-0.55c-0.02-0.01-0.06-0.03-0.1-0.04c-0.4-0.15-0.8-0.27-1.21-0.36
				c-0.08-0.02-0.5-0.07-0.5-0.07c-0.12-0.01-0.24-0.02-0.36-0.02c-0.41-0.01-0.83,0.01-1.24,0.06c-0.1,0.02-0.28,0.05-0.39,0.07
				c-0.25,0.06-0.51,0.12-0.76,0.19c-0.39,0.11-0.78,0.25-1.16,0.4c-0.03,0.03-0.77,0.37-0.89,0.44c-0.42,0.22-0.83,0.46-1.23,0.71
				c-1.78,1.12-3.1,2.29-4.75,3.97c-1.45,1.48-2.93,3.25-3.93,4.59c-2.83,3.81-5.14,7.94-7.14,12.24
				c-2.68,5.8-4.69,11.91-6.26,18.09c-1.6,6.26-2.84,12.59-2.89,19.07c-0.08,11.08,2.89,22.56,10.22,30.84
				c6.74,7.62,16.47,11.87,26.76,10.89c10.21-0.97,19.91-7.31,25.99-15.57c3.46-4.77,6.37-9.93,8.68-15.35
				c4.65-10.91,7.01-22.82,7.41-34.65C315.1-147.01,315.12-150.69,314.78-154.34z"/>
			<path class="st1" d="M328.99-107.94c-0.69-0.19-1.68,0.24-1.8,1.02c-1.02,6.99-4.71,13.57-10.34,17.89
				c-0.63,0.48-0.96,1.26-0.52,2c0.36,0.62,1.37,1.01,2,0.52c6.23-4.77,10.55-11.84,11.69-19.64
				C330.13-106.93,329.82-107.72,328.99-107.94z"/>
			<path class="st1" d="M336.52-100.65c-0.83-0.23-1.5,0.29-1.8,1.02c-1.4,3.47-3.39,6.86-5.75,9.79c-0.49,0.61-0.6,1.47,0,2.07
				c0.51,0.51,1.57,0.62,2.07,0c2.71-3.37,4.88-7.07,6.5-11.08C337.84-99.58,337.22-100.46,336.52-100.65z"/>
			<path class="st1" d="M220.46-111.52c-0.58,4.46-0.08,9.05,1.42,13.29c0.26,0.74,1,1.24,1.8,1.02c0.72-0.2,1.29-1.05,1.02-1.8
				c-1.43-4.03-1.86-8.27-1.31-12.51c0.1-0.78-0.75-1.46-1.46-1.46C221.05-112.98,220.56-112.31,220.46-111.52z"/>
			<path class="st1" d="M218.77-95.37c0.7-0.23,1.31-1.03,1.02-1.8c-1.09-2.91-1.46-5.72-1.17-8.81c0.07-0.76-0.72-1.5-1.46-1.46
				c-0.85,0.04-1.39,0.64-1.46,1.46c-0.3,3.23,0.14,6.55,1.28,9.59C217.23-95.68,217.97-95.12,218.77-95.37z"/>
			<path class="st1" d="M90.12-139.94c-19.16-1.24-37.99-6.62-54.88-15.76c-2.06-1.12-4.09-2.29-6.08-3.51
				c-2.08-1.28-4.26-2.63-5.4-4.88c-1.14-2.25-1.25-4.84-1.4-7.32c-0.14-2.44-0.17-4.88-0.09-7.32c0.31-9.22,2.16-18.37,5.46-26.99
				c-1.35-0.37-2.67-0.82-3.95-1.33c-7.91-3.17-14.91-8.61-19.29-15.99c-4.62-7.8-5.48-17.03-3.46-25.77
				c1.01-4.36,2.72-8.58,4.81-12.53c2.05-3.88,4.49-7.71,7.55-10.88c5.46-5.65,12.81-8.8,20.6-9.39c7.79-0.59,15.64,1.46,22.61,4.82
				c1.75,0.84,3.44,1.78,5.08,2.81c1.69,1.06,3.49,2.17,5.58,1.9c1.42-0.18,3.04-1.53,4.3-2.62c1.67-1.46,3.35-2.91,5.23-4.09
				c7.32-4.59,16.64-5.81,24.97-3.64c8.3,2.16,15.27,7.91,19.09,15.58c3.05,6.12,4.24,13.19,3.07,19.92
				c5.45-0.73,11.09-0.14,16.25,1.69c11.97,4.26,21.35,14.94,20.95,28.1c-0.33,10.92-6.88,21.95-17.21,25.92
				c1.44,4.76,1.5,9.82,0.17,14.68c-2.94,10.74-12.08,19.03-23.41,19.46c-3.81,0.14-7.57-0.57-11.05-1.97
				c0.36,0.74,0.4,1.65-0.15,2.58c-1.31,2.23-2.15,4.57-2.63,7.11c-0.44,2.33-1.5,4.49-3.16,6.21c-1.54,1.6-3.64,2.78-5.83,3.2
				C95.34-139.46,92.66-139.78,90.12-139.94z M30.3-211.08c6.16,1.49,12.5,1.01,17.86-2.5c0.25-0.96,0.93-1.76,2-2.06
				c1.45-0.4,3.29,0.49,3.6,2.04c0.89,4.43,1.91,9.42,5.11,12.81c3.11,3.31,7.53,3.34,11.27,1.14c2.15-1.27,5.07,0.84,4.3,3.3
				c-0.09,0.3-0.18,0.6-0.24,0.9c-0.03,0.13-0.05,0.26-0.07,0.4c-0.02,0.59-0.06,1.17-0.03,1.76c0.01,0.23,0.04,0.46,0.06,0.69
				c0.01,0.05,0.07,0.48,0.1,0.63c0.14,0.69,0.32,1.37,0.54,2.04c0.11,0.33,0.23,0.64,0.34,0.97c0.05,0.13,0.07,0.2,0.08,0.23
				c0.01,0.02,0.03,0.06,0.07,0.15c0.26,0.57,0.53,1.13,0.83,1.68c0.35,0.64,0.73,1.27,1.14,1.87c0.15,0.23,0.31,0.46,0.48,0.68
				c0.1,0.14,0.2,0.27,0.3,0.41c0.03,0.03,0.05,0.07,0.09,0.11c1.85,2.26,3.54,3.77,5.83,5.07c1.42,0.81,1.92,1.03,3.49,1.47
				c0.37,0.1,0.74,0.19,1.11,0.27c0.16,0.03,0.65,0.12,0.75,0.14c0.1,0.01,0.6,0.06,0.77,0.07c0.34,0.02,0.68,0.03,1.03,0.03
				c1.64,0,2.31-0.1,3.92-0.57c1.58-0.46,2.83-1.08,4.33-2.01c3.21-1.98,6.15,3.08,2.95,5.05c-0.41,0.25-0.83,0.49-1.25,0.72
				c1.91,3.44,5.05,6.29,8.68,8.19c7.67,4,17.16,3.23,23.32-3.1c2.97-3.05,4.9-6.87,5.78-11.17c0.79-3.82,0.43-8.4-1.21-11.95
				c-0.76-1.63-0.24-3.83,1.75-4.3c5.33-1.25,9.59-4.72,12.39-9.41c2.53-4.22,3.75-8.95,3.51-13.87c-0.07-1.52-0.15-2.09-0.5-3.56
				c-0.14-0.61-0.31-1.22-0.5-1.81c-0.1-0.3-0.2-0.6-0.31-0.89c0.01,0.03-0.18-0.45-0.22-0.56c-1.07-2.48-2.53-4.64-4.22-6.47
				c-7.2-7.75-18.81-10.71-28.81-7.82c-2.04,0.59-4.35-1.47-3.6-3.6c0.56-1.59,1.08-3.64,1.26-5.04c0.87-7-1.18-14.43-5.62-19.82
				c-4.76-5.79-11.73-8.85-19.11-8.86c-3.6-0.01-7.24,0.67-10.52,2.11c-1.71,0.75-3.35,1.69-4.86,2.8c-1.55,1.14-3.02,2.63-4.6,3.84
				c-1.79,1.37-3.75,2.37-6.02,2.61c-2.38,0.25-4.85-0.41-6.96-1.49c-1.68-0.86-3.22-2-4.88-2.9c-1.49-0.8-3.19-1.62-4.54-2.16
				c-3.27-1.31-6.72-2.3-10.22-2.76c-0.11-0.01-0.36-0.04-0.43-0.05c-0.22-0.02-0.43-0.05-0.65-0.07c-0.38-0.04-0.76-0.07-1.13-0.09
				c-0.86-0.05-1.72-0.08-2.58-0.07c-1.67,0.01-3.36,0.16-4.62,0.38c-6.64,1.17-12.36,4.56-16.4,10.08
				c-4.6,6.3-8.35,14.07-9.21,21.76c-0.87,7.8,1.12,15.47,6.31,21.56C16.99-216.57,23.35-212.76,30.3-211.08z M81.37-146.68
				c1.98-7.92,3.08-16.04,3.26-24.21c0.01-0.45,0.19-0.79,0.45-1.03c-4.92-1.61-9.13-5.02-12.24-9.24
				c-2.37-3.21-4.28-7.38-4.6-11.54c-4.44,0.98-9.15,0.05-12.71-3.16c-3.36-3.03-5.16-7.23-6.34-11.55
				c-0.7,0.37-1.42,0.71-2.16,1.02c-4.25,1.77-8.91,2.25-13.49,1.78c-3.5,8.98-5.42,18.52-5.47,28.17
				c-0.01,2.29,0.07,4.58,0.26,6.85c0.15,1.77,0.48,3.16,2,4.2c3.02,2.05,6.24,3.83,9.5,5.51c-0.01-1.87,0-3.74,0.05-5.61
				c0.26-9.76,1.34-19.5,3.19-29.08c0.15-0.78,1.08-1.22,1.8-1.02c0.8,0.22,1.17,1.02,1.02,1.8c-0.52,2.69-0.98,5.38-1.37,8.09
				c-1.31,9.03-1.87,18.18-1.75,27.3c5.36,2.62,10.9,4.85,16.58,6.69c0.04-1.9,0.09-3.79,0.18-5.69c0.44-9.3,1.5-18.56,3.14-27.72
				c0.14-0.78,1.09-1.22,1.8-1.02c0.81,0.22,1.16,1.02,1.02,1.8c-0.45,2.54-0.86,5.09-1.23,7.64c-1.22,8.57-1.87,17.23-2.01,25.89
				c1.32,0.39,2.64,0.77,3.97,1.12C71.21-148.39,76.27-147.38,81.37-146.68z M84.29-146.32c2.59,0.29,5.19,0.51,7.8,0.64
				c1.15,0.06,2.31,0.13,3.46,0.12c0.77,0,1.04-0.04,1.86-0.32c0.97-0.32,2.19-1.27,2.78-2.23c0.89-1.46,1.01-3.27,1.54-5.1
				c0.62-2.16,1.54-4.26,2.69-6.2c0.44-0.75,1.05-1.16,1.71-1.32c-4.41-2.52-8.12-6.22-10.5-10.76c-1.82,0.44-3.69,0.65-5.57,0.53
				c-0.87-0.06-1.72-0.17-2.55-0.33c0.03,0.12,0.05,0.25,0.04,0.39C87.37-162.62,86.27-154.36,84.29-146.32z"/>
			<path class="st1" d="M211.99-245.53c0.79-0.04,1.46-0.64,1.46-1.46c0-1.53,0-3.06,0-4.6c0-0.76-0.67-1.5-1.46-1.46
				c-0.79,0.04-1.46,0.64-1.46,1.46c0,1.53,0,3.06,0,4.6C210.53-246.23,211.2-245.5,211.99-245.53z"/>
			<path class="st1" d="M213.45-238.6c0-0.76-0.67-1.5-1.46-1.46c-0.79,0.04-1.46,0.64-1.46,1.46c0,1.53,0,3.06,0,4.6
				c0,0.76,0.67,1.5,1.46,1.46c0.79-0.04,1.46-0.64,1.46-1.46C213.45-235.54,213.45-237.07,213.45-238.6z"/>
			<path class="st1" d="M216.18-241.34c1.53,0,3.06,0,4.6,0c0.76,0,1.5-0.67,1.46-1.46c-0.04-0.79-0.64-1.46-1.46-1.46
				c-1.53,0-3.06,0-4.6,0c-0.76,0-1.5,0.67-1.46,1.46C214.76-242.01,215.37-241.34,216.18-241.34z"/>
			<path class="st1" d="M209.25-242.8c-0.04-0.79-0.64-1.46-1.46-1.46c-1.53,0-3.06,0-4.6,0c-0.76,0-1.5,0.67-1.46,1.46
				c0.04,0.79,0.64,1.46,1.46,1.46c1.53,0,3.06,0,4.6,0C208.56-241.34,209.29-242.01,209.25-242.8z"/>
			<path class="st1" d="M161.53-119.64c0,2.86-2.33,5.18-5.18,5.18c-2.86,0-5.19-2.33-5.19-5.18c0-2.86,2.33-5.19,5.19-5.19
				C159.2-124.82,161.53-122.49,161.53-119.64z M158.61-119.64c0-1.25-1.01-2.26-2.26-2.26c-1.25,0-2.26,1.01-2.26,2.26
				c0,1.25,1.01,2.26,2.26,2.26C157.59-117.37,158.61-118.39,158.61-119.64z"/>
		</g>
		<g>
			<path class="st1" d="M545.01-510.21c-2.38,13.09-7.3,25.91-15.13,36.72c-3.54,4.82-7.83,8.97-12.89,12.18
				c-4.61,2.93-9.76,4.93-15.06,5.83c-0.02,0.14-0.03,0.28-0.07,0.41c-1.67,5.48-2.85,11.1-4.45,16.6
				c4.78,4.95,6.07,12.37,5.45,19.01c-0.63,6.81-2.83,13.31-5.44,19.6c-2.41,5.8-5.61,12.01-11.52,14.91
				c-5.47,2.68-12.01,2.26-17.53-0.05c-4.93-2.07-9.6-5.87-11.13-11.19c-1.06-3.7-0.98-7.8-0.72-11.6c0.33-4.95,1.11-9.9,2.32-14.71
				c1.15-4.59,2.7-9.21,5.05-13.34c1.91-3.34,4.58-6.61,8.39-7.77c0.17-0.05,0.34-0.08,0.5-0.1c1.47-5.49,3.21-10.91,4.1-16.53
				c-8.03-4.89-13.96-12.57-17.36-21.47c-5.18-13.57-3.87-28.19-0.31-41.96c3.05-11.78,7.68-23.46,15.25-33.09
				c5.43-6.9,15.28-15.58,24.39-9.53c1.92,1.27,3.45,2.89,4.68,4.71c1.52-1.32,3.17-2.44,5.01-3.16c3.83-1.51,7.75-0.36,10.75,2.28
				c1.98,1.75,3.47,3.99,4.68,6.36c1.51-0.86,3.13-1.5,4.85-1.78c4.6-0.76,9.34,0.86,12.36,4.46c2.85,3.4,4.22,7.78,4.9,12.1
				C547.69-531.11,546.85-520.31,545.01-510.21z M506.27-555.98c0.62,1.79,1.07,3.65,1.39,5.5c0.72,4.08,1.16,8.21,1.41,12.35
				c0.11-0.2,0.21-0.4,0.32-0.6c2.39-4.34,5.08-8.59,8.42-12.26c0.46-0.5,0.94-0.99,1.43-1.47c-0.16-0.33-0.31-0.66-0.48-0.99
				c-0.42-0.79-0.88-1.56-1.38-2.31c-0.18-0.27-0.38-0.54-0.57-0.8c0.01,0.04-0.54-0.65-0.66-0.77c-0.29-0.32-0.6-0.62-0.92-0.91
				c-0.1-0.09-0.22-0.18-0.32-0.27c-0.01-0.01-0.01-0.02-0.03-0.03c-0.01-0.01-0.02-0.01-0.03-0.02c-0.28-0.17-0.55-0.37-0.84-0.53
				c-0.13-0.07-0.26-0.13-0.39-0.2c-0.34-0.09-0.7-0.19-1.04-0.29c-0.01,0-0.01,0-0.01,0c-0.12,0.01-0.26-0.01-0.39-0.01
				c-0.18,0-0.35,0.02-0.53,0.02c-0.38,0.09-0.76,0.22-1.13,0.31c-0.04,0.01-0.06,0.01-0.08,0.02c-0.02,0.01-0.04,0.02-0.07,0.04
				c-0.22,0.12-0.44,0.22-0.66,0.34c-0.39,0.22-0.76,0.46-1.12,0.71c-0.05,0.04-0.1,0.07-0.13,0.09c-0.23,0.18-0.45,0.37-0.66,0.56
				c-0.41,0.37-0.81,0.75-1.19,1.15C506.49-556.22,506.38-556.1,506.27-555.98z M505.15-481.62c4.45-2.19,7.55-7.17,9.83-11.32
				c5.26-9.57,7.93-20.76,8.69-31.61c0.54-7.6,0.1-14.76-2.09-21.9c-2.41,2.72-4.31,5.72-6.24,9.08c-1.93,3.36-3.63,6.83-5.35,10.3
				c-0.22,0.45-0.45,0.9-0.67,1.36c-0.08,6.85-0.45,13.71-1.09,20.52c-0.35,3.76-0.83,7.51-1.07,11.27
				c-0.16,2.53-0.01,5.06-0.37,7.58C506.56-484.67,506.04-483.03,505.15-481.62z M501.19-549.92c-3.41,4.61-6.3,9.61-8.62,14.86
				c-4.53,10.26-6.71,21.6-6.36,32.8c0.05,1.47,0.13,2.93,0.27,4.39c0.06,0.66,0.13,1.33,0.21,1.99c0.01,0.1,0.02,0.18,0.03,0.24
				c0.01,0.03,0.01,0.07,0.02,0.12c0.03,0.17,0.06,0.34,0.09,0.51c0.19,1.03,0.45,2.06,0.76,3.06c0.16,0.51,0.33,1.01,0.52,1.5
				c0.05,0.13,0.1,0.26,0.15,0.39c0.02,0.03,0.23,0.53,0.23,0.54c0.45,0.97,0.95,1.92,1.54,2.82c0.62,0.95,0.63,1,1.45,1.85
				c0.33,0.34,0.67,0.67,1.04,0.97c0.08,0.05,0.38,0.27,0.41,0.29c0.22,0.14,0.44,0.27,0.66,0.39c-0.15-0.76-0.27-1.53-0.37-2.29
				c-0.91-7.16,0.09-14.46,2.07-21.36c2.02-7.05,5.05-13.79,8.27-20.37c0.02-0.04,0.04-0.07,0.05-0.11
				c0.04-6.99-0.34-13.97-1.45-20.8c-0.13-0.82-0.28-1.64-0.45-2.47C501.53-550.38,501.36-550.15,501.19-549.92z M498.72-491.37
				c-0.02,2.39-0.03,5.11,0.64,7.5c0.15-0.1,0.29-0.21,0.4-0.32c0.1-0.1,0.2-0.2,0.29-0.31c0.03-0.04,0.05-0.08,0.09-0.14
				c0.13-0.21,0.25-0.42,0.36-0.64c0.03-0.05,0.04-0.08,0.06-0.1c0.02-0.05,0.03-0.08,0.05-0.15c0.1-0.28,0.18-0.57,0.26-0.86
				c0.28-1.1,0.27-1.37,0.33-2.62c0.11-2.48,0.1-4.93,0.32-7.4c0.32-3.5,0.71-7,1.01-10.51c0.13-1.46,0.24-2.93,0.36-4.4
				C500.49-504.89,498.79-498.26,498.72-491.37z M497.16-422.74c-0.02-2.95-0.49-6-1.83-8.65c-1.06-2.11-2.54-3.71-4.42-4.92
				c-2.18-1.4-4.27-2.12-6.92-2.61c-1.08-0.2-2.09-0.3-3.44-0.33c-0.64-0.01-1.28,0-1.91,0.03c-0.31,0.02-0.63,0.04-0.94,0.07
				c0,0-1.01,0.11-0.45,0.04c-0.43,0.06-0.86,0.05-1.26-0.01c-0.2,0.05-0.41,0.07-0.62,0.08c-0.33,0.47-0.83,0.86-1.53,1.07
				c-0.06,0.02-0.12,0.04-0.18,0.06c0.03-0.01-0.1,0.03-0.22,0.08c-0.07,0.03-0.14,0.05-0.22,0.08c0.08-0.02,0.13-0.04,0.18-0.06
				c-0.03,0.01-0.06,0.03-0.08,0.04c-0.35,0.2-0.68,0.42-1.02,0.63c0,0-0.01,0-0.01,0.01c-0.01,0.01-0.02,0.02-0.03,0.03
				c-0.11,0.11-0.23,0.2-0.35,0.31c-0.33,0.3-0.65,0.63-0.94,0.96c-0.17,0.2-0.34,0.4-0.51,0.6c0,0,0,0-0.01,0.01
				c-0.27,0.39-0.55,0.77-0.8,1.17c-0.55,0.86-1.04,1.74-1.5,2.65c-0.26,0.52-0.51,1.05-0.75,1.58c-0.07,0.15-0.14,0.31-0.2,0.47
				c0,0.01,0,0.01-0.01,0.02c-0.1,0.24-0.2,0.49-0.29,0.73c-0.43,1.09-0.82,2.2-1.18,3.32c-0.75,2.34-1.37,4.73-1.88,7.13
				c-0.24,1.12-0.45,2.24-0.64,3.37c-0.09,0.56-0.18,1.12-0.27,1.68c-0.03,0.21-0.06,0.42-0.09,0.63c-0.01,0.09-0.06,0.49-0.07,0.53
				c-0.25,2.01-0.42,4.03-0.49,6.06c-0.06,1.82-0.05,3.65,0.12,5.46c0.01,0.13,0.03,0.25,0.04,0.38c0,0.05,0.02,0.2,0.03,0.31
				c0,0.03,0.01,0.07,0.01,0.1c0-0.04-0.01-0.06-0.01-0.09c0,0.02,0.01,0.05,0.01,0.06c0.05,0.29,0.1,0.59,0.16,0.88
				c0.12,0.6,0.31,1.16,0.48,1.74c0,0.01,0,0.01,0,0.02c0,0,0,0,0,0c0.14,0.27,0.26,0.54,0.41,0.8c0.15,0.26,0.3,0.52,0.47,0.77
				c-0.01-0.01,0.32,0.45,0.33,0.49c0.66,0.85,1.46,1.62,2.3,2.3c0.28,0.22,0.23,0.18,0.67,0.49c0.26,0.18,0.53,0.35,0.8,0.52
				c0.46,0.28,0.93,0.54,1.4,0.78c1.1,0.56,1.91,0.86,3.24,1.24c2.3,0.65,4.26,0.88,6.81,0.61c0.36-0.04,0.41-0.05,0.14-0.02
				c0.2-0.03,0.4-0.07,0.6-0.11c0.3-0.06,0.59-0.13,0.88-0.21c0.29-0.08,0.57-0.16,0.86-0.26c-0.04,0.01,0.5-0.19,0.55-0.2
				c1-0.43,2.11-1.13,2.78-1.7c2.58-2.18,4.31-5.13,5.71-8.23c-0.08-0.05-0.17-0.09-0.23-0.16c-1.88-2.02-4.12-3.66-6.27-5.37
				c-0.64-0.51-0.49-1.54,0-2.07c0.25-0.27,0.68-0.43,1.03-0.43c0.42,0,0.72,0.18,1.03,0.43c1.92,1.53,3.9,3.01,5.64,4.74
				c0.27-0.68,0.53-1.36,0.79-2.03c-2.16-2.12-4.17-4.37-6.54-6.27c-0.64-0.51-0.49-1.54,0-2.07c0.57-0.62,1.47-0.48,2.07,0
				c2.01,1.62,3.77,3.49,5.58,5.32c0.23-0.65,0.45-1.31,0.67-1.97c-2.42-2.3-4.85-4.23-7.68-6.03c-0.69-0.44-0.91-1.28-0.52-2
				c0.36-0.68,1.35-0.94,2-0.52c2.52,1.6,4.9,3.42,7.13,5.42C496.62-416.02,497.18-419.36,497.16-422.74z M480.23-445.1
				c4.16,0.04,8.44,0.97,12.15,2.92c1.16-4.24,2.16-8.53,3.37-12.76c-4.52,0.02-9.04-0.79-13.35-2.53
				c-0.02-0.01-0.04-0.02-0.06-0.03c-0.76,4.2-1.95,8.3-3.1,12.41C479.56-445.1,479.89-445.11,480.23-445.1z M540.72-537.45
				c-0.12-1.27-0.17-1.66-0.32-2.59c-0.16-0.97-0.35-1.93-0.59-2.89c-0.25-1.01-0.55-2.02-0.92-2.99c-0.04-0.1-0.07-0.19-0.11-0.29
				c-0.02-0.03-0.19-0.43-0.21-0.47c-0.18-0.39-0.38-0.77-0.59-1.14c-0.25-0.44-0.53-0.85-0.8-1.27c-0.03-0.05-0.05-0.08-0.07-0.11
				c-0.02-0.03-0.04-0.04-0.07-0.08c-0.11-0.12-0.21-0.25-0.32-0.37c-0.27-0.3-0.56-0.57-0.85-0.86c-0.05-0.04-0.29-0.24-0.36-0.29
				c-0.1-0.07-0.19-0.14-0.29-0.2c-0.41-0.27-0.84-0.5-1.28-0.71c-0.01,0-0.01,0-0.01-0.01c-0.03-0.01-0.05-0.01-0.1-0.03
				c-0.25-0.07-0.49-0.16-0.74-0.23c-0.15-0.04-0.86-0.18-0.95-0.21c-0.36-0.04-0.72-0.06-1.07-0.06c-0.29,0-0.57,0.02-0.86,0.04
				c-0.02,0-0.02,0-0.04,0c-0.01,0-0.02,0-0.03,0.01c-0.4,0.09-0.8,0.17-1.19,0.28c-0.13,0.04-0.74,0.26-0.85,0.29
				c-0.42,0.18-0.83,0.39-1.22,0.61c-0.19,0.11-0.37,0.23-0.55,0.35c1.08,2.91,1.92,5.92,2.47,8.97
				c2.06,11.51,0.75,23.82-2.25,35.05c-1.54,5.75-3.65,11.43-6.52,16.65c-3.02,5.5-7.18,11.37-13.12,13.95
				c-3.32,1.44-7.14,1.59-10.03-0.83c-0.53,0.05-1.06,0.08-1.58,0.04c-5-0.33-8.75-3.97-11.06-8.17c-2.56-4.63-3.42-9.64-3.75-14.87
				c-0.4-6.26,0.03-12.54,1.09-18.72c2.12-12.31,7.15-24.24,14.57-34.29c1.03-1.4,2.11-2.88,3.28-4.32
				c-0.99-1.73-2.32-3.31-3.75-4.2c-0.32-0.2-0.65-0.38-0.99-0.55c-0.02-0.01-0.06-0.03-0.1-0.04c-0.4-0.15-0.8-0.27-1.21-0.36
				c-0.08-0.02-0.5-0.07-0.5-0.07c-0.12-0.01-0.24-0.02-0.36-0.02c-0.41-0.01-0.83,0.01-1.24,0.06c-0.1,0.02-0.28,0.05-0.39,0.07
				c-0.25,0.06-0.51,0.12-0.76,0.19c-0.39,0.11-0.78,0.25-1.16,0.4c-0.03,0.03-0.77,0.37-0.89,0.44c-0.42,0.22-0.83,0.46-1.23,0.71
				c-1.78,1.12-3.1,2.29-4.75,3.97c-1.45,1.48-2.93,3.25-3.93,4.59c-2.83,3.81-5.14,7.94-7.14,12.24
				c-2.68,5.8-4.69,11.91-6.26,18.09c-1.6,6.26-2.84,12.59-2.89,19.07c-0.08,11.08,2.89,22.56,10.22,30.84
				c6.74,7.62,16.47,11.87,26.76,10.89c10.21-0.97,19.91-7.31,25.99-15.57c3.46-4.77,6.37-9.93,8.68-15.35
				c4.65-10.91,7.01-22.82,7.41-34.65C541.04-530.11,541.06-533.79,540.72-537.45z"/>
			<path class="st1" d="M473.45-437.84c-0.01,0-0.02,0.01-0.03,0.01c0.16-0.05,0.24-0.08,0.25-0.09
				C473.59-437.89,473.52-437.87,473.45-437.84z"/>
			<path class="st1" d="M462.43-400.06c0.01,0.1,0.02,0.21,0.03,0.31c0,0.01,0,0.01,0,0.02
				C462.44-400.04,462.43-400.11,462.43-400.06z"/>
			<path class="st1" d="M464.51-400.63c-1.65,0.91-0.17,3.44,1.48,2.52c5.55-3.08,12.75-1.24,16.67,3.75c0.49,0.62,1.56,0.51,2.07,0
				c0.61-0.61,0.49-1.45,0-2.07C480.04-402.37,471.17-404.32,464.51-400.63z"/>
			<path class="st1" d="M554.94-491.05c-0.69-0.19-1.68,0.24-1.8,1.02c-1.02,6.99-4.71,13.57-10.34,17.89
				c-0.63,0.48-0.96,1.26-0.52,2c0.36,0.62,1.37,1.01,2,0.52c6.23-4.77,10.55-11.84,11.69-19.64
				C556.07-490.03,555.76-490.82,554.94-491.05z"/>
			<path class="st1" d="M562.46-483.75c-0.83-0.23-1.5,0.29-1.8,1.02c-1.4,3.47-3.39,6.86-5.75,9.79c-0.49,0.61-0.6,1.47,0,2.07
				c0.51,0.51,1.57,0.62,2.07,0c2.71-3.37,4.88-7.07,6.5-11.08C563.78-482.69,563.16-483.56,562.46-483.75z"/>
			<path class="st1" d="M446.4-494.63c-0.58,4.46-0.08,9.05,1.42,13.29c0.26,0.74,1,1.24,1.8,1.02c0.72-0.2,1.29-1.05,1.02-1.8
				c-1.43-4.03-1.86-8.27-1.31-12.51c0.1-0.78-0.74-1.46-1.46-1.46C446.99-496.09,446.5-495.41,446.4-494.63z"/>
			<path class="st1" d="M444.71-478.48c0.7-0.23,1.31-1.03,1.02-1.8c-1.09-2.91-1.46-5.72-1.17-8.81c0.07-0.76-0.72-1.5-1.46-1.46
				c-0.85,0.04-1.39,0.64-1.46,1.46c-0.3,3.23,0.14,6.55,1.28,9.59C443.18-478.79,443.91-478.22,444.71-478.48z"/>
			<path class="st1" d="M400.66-423.69c3.96,7.28,4.39,15.61,2.94,23.63c-1.48,8.16-4.84,15.86-8.38,23.3
				c-3.74,7.86-7.72,15.6-11.92,23.22c-4.2,7.62-8.63,15.12-13.28,22.48c-2.29,3.62-4.59,7.24-7.03,10.76
				c-2.24,3.23-4.77,6.36-8.24,8.33c-1.74,0.99-3.56,1.62-5.42,1.99c-1.37,4.44-3.04,8.95-5.67,12.76c0.04,0.03,0.07,0.05,0.11,0.09
				c3.89,3.71,6.66,8.57,7.95,13.78c0.58,2.32,0.87,4.73,0.85,7.12c-0.02,2.44-0.3,5-1.24,7.26c-0.99,2.39-2.78,4.39-5.3,5.18
				c-2.25,0.71-4.7,0.08-6.36-1.59c-1.48-1.49-2.29-3.56-2.73-5.58c-0.55-2.51-0.71-5.15-0.74-7.71c-0.04-4.26,0.48-8.52,1.54-12.65
				c-7.18,4.71-16.09,2.58-23.47-0.58c-8.02-3.43-15.76-7.71-23.21-12.24c-6.53-3.97-14.06-8.16-18.16-14.86
				c-2.05-3.35-3.03-7.5-2.64-11.41c0.39-3.88,1.93-7.37,3.61-10.83c-1.62-1.81-2.86-3.92-3.62-6.32
				c-1.97-6.23-0.13-12.97,2.07-18.87c1.78-4.76,4.12-9.46,5.44-14.41c-0.48-0.25-0.91-0.63-1.24-1.09
				c-2.2-3.08-4.15-6.34-5.67-9.81c-3.17-7.22-4.78-15.5-2.3-23.2c1.91-5.93,6.59-10.94,12.27-13.45c5.7-2.52,12.52-2.8,17.7,1.09
				c2.56,1.92,4.56,4.99,7.33,6.3c0.97,0.46,2.17,0.5,3.3,0.03c1.26-0.53,2.47-1.61,3.34-2.76c2.22-2.92,2.81-6.78,3.86-10.21
				c1.14-3.75,2.83-7.21,5.57-10.05c4.93-5.12,12.09-7.66,19.07-8.1c8.6-0.54,17.07,2.26,24.99,5.28
				c6.76,2.58,13.61,5.18,19.87,8.84C391.81-434.47,397.32-429.83,400.66-423.69z M344.38-446.25c3.68,4.51,7.24,9.11,10.67,13.81
				c1.24,1.71,2.45,3.45,3.66,5.18c7.77-2.18,15.57-4.23,23.42-6.13c-2.83-1.6-5.81-2.98-8.77-4.24c-6.83-2.91-13.96-5.8-21.22-7.51
				C349.59-445.73,346.98-446.14,344.38-446.25z M320.2-342.53c8.92-3.05,17.92-5.88,27-8.42c2.39-0.67,4.78-1.31,7.18-1.94
				c-0.59-0.89-1.19-1.77-1.77-2.67c-5.51-8.43-10.82-17-15.94-25.68c-4.38,1.25-8.75,2.55-13.1,3.91
				c-6.55,2.05-13.05,4.22-19.52,6.52c2.96,5.96,6.08,11.83,9.45,17.57C315.64-349.61,317.87-346.04,320.2-342.53z M319.03-339.04
				c-6.08,2.11-12.13,4.32-18.15,6.61c7.37,3.08,14.92,5.82,22.16,9.03c4.47,1.98,8.87,4.66,13.54,6.35
				c-4.95-5.27-9.56-10.86-13.83-16.7C321.48-335.49,320.24-337.26,319.03-339.04z M325.85-381.1c3.09-0.95,6.19-1.85,9.3-2.74
				c-0.83-1.42-1.67-2.83-2.48-4.25c-4.5-7.84-8.83-15.77-13.01-23.79c0,0,0,0-0.01,0c-9.76,3.43-19.44,7.1-29.02,10.99
				c0.5,1.23,0.99,2.47,1.5,3.7c3.13,7.54,6.42,15.02,9.95,22.38c0.22,0.46,0.45,0.91,0.67,1.36
				C310.4-376.17,318.1-378.72,325.85-381.1z M338.05-384.67c4.19-1.17,8.4-2.3,12.62-3.37c8.29-2.1,16.63-4.01,25.01-5.71
				c0.02,0,0.04-0.01,0.07-0.01c-4.4-8.31-9.18-16.42-14.32-24.29c-1.28-1.96-2.6-3.9-3.93-5.83c-11.78,3.35-23.47,7.03-35.05,11.04
				c1.5,2.88,3.02,5.75,4.56,8.6C330.58-397.65,334.27-391.13,338.05-384.67z M318-421.53c1.02,2.02,2.05,4.04,3.09,6.06
				c6.79-2.36,13.61-4.61,20.47-6.74c4.71-1.46,9.44-2.85,14.18-4.21c-4.76-6.79-9.79-13.4-15.09-19.78
				c-2.89,0.21-5.72,0.85-8.37,2.07c-2.82,1.29-5.21,2.94-7.16,5.34c-2.06,2.52-3.01,5.95-3.9,9.16
				C320.42-426.79,319.52-424.02,318-421.53z M282.09-422.49c0.32,0.84,0.65,1.68,0.97,2.51c2.12,5.48,4.28,10.94,6.48,16.39
				c3.78-1.54,7.57-3.04,11.38-4.5c5.77-2.22,11.57-4.34,17.4-6.4c-0.76-1.48-1.51-2.96-2.26-4.45c-2.26,2.47-5.59,4.37-9.01,4.14
				c-3.69-0.26-6.42-2.46-8.93-4.98c-0.95-0.96-2.16-2.22-3.04-2.83c-0.58-0.4-1.19-0.76-1.83-1.05c-0.2-0.09-0.63-0.25-1.23-0.42
				c-1.34-0.37-1.85-0.43-3.43-0.36c-0.3,0.01-0.6,0.04-0.9,0.07c-0.07,0.02-0.59,0.09-0.68,0.11c-0.59,0.11-1.18,0.26-1.76,0.43
				C284.19-423.52,283.12-423.05,282.09-422.49z M277.53-363.72c0.02-0.01,0.03-0.01,0.05-0.02c7.41-3.07,14.88-5.97,22.42-8.71
				c-0.6-1.24-1.2-2.48-1.79-3.73c-3.54-7.53-6.83-15.17-9.98-22.86c-0.1-0.25-0.2-0.49-0.3-0.74c-2.72,1.12-5.44,2.25-8.14,3.4
				c-0.73,0.31-1.56,0.23-2-0.52c-0.36-0.62-0.2-1.69,0.52-2c2.84-1.21,5.69-2.39,8.54-3.56c-2.47-6.11-4.88-12.24-7.25-18.39
				c-0.26,0.21-0.52,0.42-0.76,0.63c-0.55,0.49-1.07,1.01-1.56,1.56c-0.21,0.23-0.42,0.47-0.62,0.72c-0.24,0.29-0.12,0.13-0.4,0.54
				c-0.42,0.6-0.81,1.22-1.15,1.87c-0.15,0.28-0.29,0.55-0.42,0.84c-0.05,0.11-0.1,0.22-0.15,0.33c-0.01,0.02-0.02,0.05-0.04,0.12
				c-1.21,3.16-1.5,6.55-1.2,9.91c0.6,6.64,3.75,12.91,7.49,18.36c0.43-0.08,0.86-0.08,1.25,0.03c1.64,0.45,2.29,2.04,2.04,3.6
				c-0.44,2.7-1.32,5.3-2.29,7.85C280.43-370.91,278.82-367.36,277.53-363.72z M275.72-349.71c0.73,2.69,2.4,5,4.92,6.73
				c5.22,3.59,10.85,6.44,16.63,9c0.18-0.2,0.42-0.36,0.68-0.46c6.05-2.33,12.13-4.58,18.25-6.73c0.38-0.13,0.76-0.26,1.14-0.39
				c-2.75-4.16-5.37-8.41-7.85-12.73c-2.91-5.08-5.63-10.27-8.23-15.52c-0.67,0.24-1.34,0.48-2.01,0.72
				c-7.7,2.82-15.33,5.82-22.89,8.99c-0.28,1-0.54,2.01-0.73,3.03c-0.07,0.38-0.14,0.76-0.2,1.15c-0.02,0.14-0.02,0.13-0.06,0.52
				c-0.07,0.7-0.11,1.39-0.11,2.09C275.28-351.75,275.35-351.08,275.72-349.71z M277.26-323.29c1.4-4.04,3.05-7.99,4.64-11.95
				c-1.16-0.68-2.29-1.4-3.4-2.15c-1.35,2.84-2.53,5.78-2.46,8.92C276.09-326.6,276.52-324.88,277.26-323.29z M279.91-321.36
				c0.55-1.44,1.12-2.88,1.71-4.31c1.1-2.63,2.28-5.22,3.53-7.78c-0.77-0.41-1.54-0.83-2.31-1.27c-1.55,4.29-3.05,8.61-4.85,12.8
				c0.42,0.68,0.89,1.34,1.42,1.96C279.58-320.42,279.74-320.89,279.91-321.36z M292.9-312.84c0.75-1.54,1.52-3.06,2.29-4.59
				c1.56-3.07,3.17-6.11,4.82-9.13c-4.33-1.79-8.62-3.67-12.79-5.8c-0.1-0.05-0.19-0.1-0.29-0.15c-1.22,2.51-2.39,5.05-3.46,7.63
				c-0.6,1.43-1.17,2.86-1.72,4.3c-0.28,0.73-0.57,1.45-0.86,2.17c1.91,1.85,4.06,3.43,6.28,4.9c1.53,1.01,3.07,1.99,4.63,2.96
				C292.15-311.32,292.53-312.08,292.9-312.84z M295.74-308.16c2.76-5.6,5.64-11.13,8.47-16.69c-0.84-0.34-1.67-0.67-2.51-1.02
				c-0.01,0.02-0.01,0.04-0.02,0.07c-1.65,3.04-3.25,6.11-4.81,9.2c-0.79,1.56-1.56,3.13-2.33,4.71c-0.36,0.73-0.7,1.47-1.08,2.19
				c-0.02,0.05-0.04,0.09-0.07,0.13C294.18-309.09,294.96-308.63,295.74-308.16z M307.32-304.76c0.85-1.84,1.7-3.67,2.56-5.5
				c1.64-3.45,3.27-6.89,4.91-10.34c-1.59-0.66-3.19-1.31-4.79-1.94c-1.56-0.62-3.12-1.24-4.68-1.87
				c-2.77,5.66-5.5,11.36-8.35,16.99c0.16,0.09,0.31,0.19,0.47,0.28c2.86,1.67,5.78,3.34,8.74,4.93
				C306.54-303.06,306.92-303.91,307.32-304.76z M309.64-300.8c0.55-1.48,1.42-2.9,2.15-4.29c0.78-1.5,1.56-3,2.35-4.5
				c1.6-3.07,3.2-6.14,4.81-9.22c0-0.01,0.01-0.01,0.01-0.02c-0.96-0.42-1.91-0.84-2.88-1.24c-1.58,3.46-3.15,6.93-4.73,10.39
				c-0.84,1.84-1.69,3.68-2.55,5.51c-0.42,0.9-0.84,1.79-1.28,2.67c0.61,0.32,1.22,0.63,1.84,0.94
				C309.43-300.65,309.52-300.74,309.64-300.8z M325.41-296.46c1.01-1.75,1.96-3.53,2.85-5.35c1.69-3.44,3.22-6.92,4.48-10.54
				c-0.27-0.11-0.53-0.21-0.79-0.33c-3.69-1.58-7.19-3.57-10.85-5.23c-0.38-0.17-0.77-0.33-1.15-0.5c-0.01,0.03-0.01,0.05-0.02,0.08
				c-1.55,3.1-3.1,6.19-4.66,9.29c-0.78,1.55-1.55,3.1-2.33,4.65c-0.69,1.38-1.32,2.9-2.19,4.19c0.02,0.11,0.01,0.23-0.02,0.33
				c2.52,1.24,5.07,2.39,7.66,3.39c1.93,0.74,3.92,1.39,5.95,1.76C324.71-295.29,325.07-295.87,325.41-296.46z M329.08-294.39
				c0.3-0.54,0.75-1.05,1.07-1.55c0.42-0.67,0.83-1.34,1.21-2.03c0.8-1.44,1.51-2.94,2.13-4.47c1.14-2.81,1.92-5.76,2.36-8.77
				c-0.69-0.22-1.37-0.46-2.04-0.72c-1.15,3.64-2.46,7.27-4.1,10.71c-0.92,1.92-1.91,3.81-2.96,5.67c-0.21,0.37-0.44,0.73-0.65,1.09
				C327.08-294.35,328.08-294.32,329.08-294.39z M343.1-309.69c-2.18-0.19-4.35-0.64-6.46-1.28c-0.44,3.01-1.21,5.97-2.35,8.81
				c-0.63,1.57-1.37,3.08-2.21,4.55c-0.43,0.75-0.89,1.48-1.37,2.2c-0.18,0.27-0.37,0.6-0.58,0.91c2.57-0.42,4.86-1.71,6.59-3.42
				C339.88-301.05,341.69-305.34,343.1-309.69z M341.86-294.91c-0.06,0.07-0.11,0.14-0.17,0.2c0.02,0.18,0.01,0.37-0.05,0.56
				c-1.8,5.28-2.65,10.83-2.48,16.41c0.06,2.17,0.2,4.39,0.73,6.5c0.4,1.6,1,3.18,2.29,4.18c0.02,0.01,0.09,0.06,0.11,0.07
				c0.09,0.06,0.17,0.11,0.26,0.16c0.04,0.02,0.38,0.18,0.39,0.19c0.4,0.15,0.76,0.22,1.16,0.22c0.86,0,1.69-0.33,2.43-0.84
				c1.69-1.17,2.42-3.25,2.79-5.18C350.86-280.49,347.67-289.25,341.86-294.91z M377.69-355.5c-5.28,1.17-10.56,2.38-15.8,3.69
				c-0.94,0.23-1.87,0.48-2.8,0.72c2.66,3.98,5.35,7.93,8.09,11.85c0.46,0.65,0.11,1.63-0.52,2c-0.72,0.42-1.55,0.12-2-0.52
				c-2.9-4.15-5.75-8.34-8.56-12.55c-8.55,2.24-17.04,4.69-25.46,7.39c-2.92,0.94-5.83,1.9-8.73,2.89c1.62,2.36,3.27,4.7,4.99,6.98
				c4.62,6.14,9.67,11.96,15.1,17.41c0.36,0.05,0.71,0.1,1.08,0.14c3.24,0.31,6.43-0.07,9.24-1.81c2.86-1.78,4.82-4.7,6.66-7.44
				C365.63-334.75,371.87-345.01,377.69-355.5z M386.31-371.79c-2.26-5.23-4.67-10.4-7.22-15.5c-0.63-1.26-1.27-2.52-1.92-3.78
				c-1.28,0.26-2.57,0.51-3.85,0.78c-8.37,1.75-16.7,3.71-24.98,5.86c-2.93,0.76-5.84,1.56-8.76,2.37
				c2.15,3.63,4.32,7.25,6.54,10.84c3.65,5.91,7.4,11.75,11.23,17.54c7.36-1.9,14.77-3.64,22.2-5.25c1.54-2.85,3.07-5.7,4.55-8.58
				C384.84-368.92,385.58-370.36,386.31-371.79z M396.21-394.55c-5.37,0.88-10.73,1.84-16.07,2.89c2.78,5.42,5.41,10.93,7.87,16.51
				c2.29-4.59,4.47-9.25,6.31-14.02C395-390.94,395.64-392.73,396.21-394.55z M398.45-411.18c-0.56-6.63-3.79-12.4-8.62-16.77
				c-1.54-1.4-3.23-2.64-4.99-3.78c-0.11,0.43-0.43,0.79-1,0.93c-7.79,1.87-15.54,3.88-23.25,6.03c-0.04,0.01-0.08,0.02-0.12,0.04
				c4.94,7.24,9.58,14.68,13.89,22.32c1.51,2.67,2.97,5.35,4.39,8.06c6.09-1.2,12.21-2.3,18.34-3.28
				C398.23-402.06,398.84-406.6,398.45-411.18z"/>
			<path class="st1" d="M316.06-523.04c-19.16-1.24-37.99-6.62-54.88-15.76c-2.06-1.12-4.09-2.29-6.08-3.51
				c-2.08-1.28-4.26-2.63-5.4-4.88c-1.14-2.25-1.25-4.84-1.4-7.32c-0.14-2.44-0.17-4.88-0.09-7.32c0.31-9.22,2.16-18.37,5.46-26.99
				c-1.35-0.37-2.67-0.82-3.95-1.33c-7.91-3.17-14.91-8.61-19.29-15.99c-4.62-7.8-5.48-17.03-3.46-25.77
				c1.01-4.36,2.72-8.58,4.81-12.53c2.05-3.88,4.49-7.71,7.55-10.88c5.46-5.65,12.81-8.8,20.6-9.39c7.79-0.59,15.64,1.46,22.61,4.82
				c1.75,0.84,3.44,1.78,5.08,2.81c1.69,1.06,3.49,2.17,5.58,1.9c1.42-0.18,3.04-1.53,4.3-2.62c1.67-1.46,3.35-2.91,5.23-4.09
				c7.32-4.59,16.64-5.81,24.97-3.64c8.3,2.16,15.27,7.91,19.09,15.58c3.05,6.12,4.24,13.19,3.07,19.92
				c5.45-0.73,11.09-0.14,16.25,1.69c11.97,4.26,21.35,14.94,20.95,28.1c-0.33,10.92-6.88,21.95-17.21,25.92
				c1.44,4.76,1.5,9.82,0.17,14.68c-2.94,10.74-12.08,19.03-23.41,19.46c-3.81,0.14-7.57-0.57-11.05-1.97
				c0.36,0.74,0.4,1.65-0.15,2.58c-1.31,2.23-2.15,4.57-2.63,7.11c-0.44,2.33-1.5,4.49-3.16,6.21c-1.54,1.6-3.64,2.78-5.83,3.2
				C321.28-522.56,318.6-522.88,316.06-523.04z M256.24-594.19c6.16,1.49,12.5,1.01,17.86-2.5c0.25-0.96,0.93-1.76,2-2.06
				c1.45-0.4,3.29,0.49,3.6,2.04c0.89,4.43,1.91,9.42,5.11,12.81c3.11,3.31,7.53,3.34,11.27,1.14c2.15-1.27,5.07,0.84,4.3,3.3
				c-0.09,0.3-0.18,0.6-0.24,0.9c-0.03,0.13-0.05,0.26-0.07,0.4c-0.02,0.59-0.06,1.17-0.03,1.76c0.01,0.23,0.04,0.46,0.06,0.69
				c0.01,0.05,0.07,0.48,0.1,0.63c0.14,0.69,0.32,1.37,0.54,2.04c0.11,0.33,0.23,0.64,0.34,0.97c0.05,0.13,0.07,0.2,0.08,0.23
				c0.01,0.02,0.03,0.06,0.07,0.15c0.26,0.57,0.53,1.13,0.83,1.68c0.35,0.64,0.73,1.27,1.14,1.87c0.15,0.23,0.31,0.46,0.48,0.68
				c0.1,0.14,0.2,0.27,0.3,0.41c0.03,0.03,0.05,0.07,0.09,0.11c1.85,2.26,3.54,3.77,5.83,5.07c1.42,0.81,1.92,1.03,3.49,1.47
				c0.37,0.1,0.74,0.19,1.11,0.27c0.16,0.03,0.65,0.12,0.75,0.14c0.1,0.01,0.6,0.06,0.77,0.07c0.34,0.02,0.68,0.03,1.03,0.03
				c1.64,0,2.31-0.1,3.92-0.57c1.58-0.46,2.83-1.08,4.33-2.01c3.21-1.98,6.15,3.08,2.95,5.05c-0.41,0.25-0.83,0.49-1.25,0.72
				c1.91,3.44,5.05,6.29,8.68,8.19c7.67,4,17.16,3.23,23.32-3.1c2.97-3.05,4.9-6.87,5.78-11.17c0.79-3.82,0.43-8.4-1.21-11.95
				c-0.76-1.63-0.24-3.83,1.75-4.3c5.33-1.25,9.59-4.72,12.39-9.41c2.53-4.22,3.75-8.95,3.51-13.87c-0.07-1.52-0.15-2.09-0.5-3.56
				c-0.14-0.61-0.31-1.22-0.5-1.81c-0.1-0.3-0.2-0.6-0.31-0.89c0.01,0.03-0.18-0.45-0.22-0.56c-1.07-2.48-2.53-4.64-4.22-6.47
				c-7.2-7.75-18.81-10.71-28.81-7.82c-2.04,0.59-4.35-1.47-3.6-3.6c0.56-1.59,1.08-3.64,1.26-5.04c0.87-7-1.18-14.43-5.62-19.82
				c-4.76-5.78-11.73-8.85-19.11-8.86c-3.6-0.01-7.24,0.67-10.52,2.11c-1.71,0.75-3.35,1.69-4.86,2.8c-1.55,1.14-3.02,2.63-4.6,3.84
				c-1.79,1.37-3.75,2.37-6.02,2.61c-2.38,0.25-4.85-0.41-6.96-1.49c-1.68-0.86-3.22-2-4.88-2.9c-1.49-0.8-3.19-1.62-4.54-2.16
				c-3.27-1.31-6.72-2.3-10.22-2.76c-0.11-0.01-0.36-0.04-0.43-0.05c-0.22-0.02-0.43-0.05-0.65-0.07c-0.38-0.04-0.76-0.07-1.13-0.09
				c-0.86-0.05-1.72-0.08-2.58-0.07c-1.67,0.01-3.36,0.16-4.62,0.38c-6.64,1.17-12.36,4.56-16.4,10.08
				c-4.6,6.3-8.35,14.07-9.21,21.76c-0.87,7.8,1.12,15.47,6.31,21.56C242.93-599.68,249.29-595.87,256.24-594.19z M307.31-529.79
				c1.98-7.92,3.08-16.04,3.26-24.21c0.01-0.45,0.19-0.79,0.45-1.03c-4.92-1.61-9.13-5.02-12.24-9.24
				c-2.37-3.21-4.28-7.38-4.6-11.54c-4.44,0.98-9.15,0.05-12.71-3.16c-3.36-3.03-5.16-7.23-6.34-11.55
				c-0.7,0.37-1.42,0.71-2.16,1.02c-4.25,1.77-8.91,2.25-13.49,1.78c-3.51,8.98-5.42,18.52-5.47,28.17
				c-0.01,2.29,0.07,4.58,0.26,6.85c0.15,1.77,0.48,3.16,2,4.2c3.02,2.05,6.24,3.83,9.5,5.51c-0.01-1.87,0-3.74,0.05-5.61
				c0.26-9.76,1.34-19.5,3.19-29.08c0.15-0.78,1.08-1.22,1.8-1.02c0.8,0.22,1.17,1.02,1.02,1.8c-0.52,2.69-0.98,5.38-1.37,8.09
				c-1.31,9.03-1.87,18.18-1.75,27.3c5.36,2.62,10.9,4.85,16.58,6.69c0.04-1.9,0.09-3.79,0.18-5.69c0.44-9.3,1.5-18.56,3.14-27.72
				c0.14-0.78,1.09-1.22,1.8-1.02c0.81,0.22,1.16,1.02,1.02,1.8c-0.45,2.54-0.86,5.09-1.23,7.64c-1.22,8.57-1.87,17.23-2.01,25.89
				c1.32,0.39,2.64,0.77,3.97,1.12C297.15-531.49,302.21-530.49,307.31-529.79z M310.23-529.42c2.59,0.29,5.19,0.51,7.8,0.64
				c1.15,0.06,2.31,0.13,3.46,0.12c0.77,0,1.04-0.04,1.86-0.32c0.97-0.32,2.19-1.27,2.78-2.23c0.89-1.46,1.01-3.27,1.54-5.1
				c0.62-2.16,1.54-4.26,2.69-6.2c0.44-0.75,1.05-1.16,1.71-1.32c-4.41-2.52-8.12-6.22-10.5-10.76c-1.82,0.44-3.69,0.65-5.57,0.53
				c-0.87-0.06-1.72-0.17-2.55-0.33c0.03,0.12,0.05,0.25,0.04,0.39C313.31-545.72,312.21-537.46,310.23-529.42z"/>
			<path class="st1" d="M276.38-602.61c-0.25-7.01,1.86-13.92,5.95-19.63c0.46-0.64,0.11-1.63-0.52-2c-0.74-0.43-1.54-0.12-2,0.52
				c-4.36,6.08-6.61,13.62-6.35,21.1C273.52-600.73,276.45-600.72,276.38-602.61z"/>
			<path class="st1" d="M302.9-585.74c0.73,0.39,1.55,0.16,2-0.52c1.43-2.17,2.87-4.34,4.3-6.51c0.42-0.64,0.15-1.65-0.52-2
				c-0.73-0.39-1.55-0.16-2,0.52c-1.43,2.17-2.87,4.34-4.3,6.51C301.95-587.1,302.23-586.09,302.9-585.74z"/>
			<path class="st1" d="M334.16-564.21c6.11-4.42,10.61-10.84,12.56-18.14c0.49-1.82-2.33-2.6-2.82-0.78
				c-1.74,6.53-5.73,12.43-11.22,16.39c-0.64,0.46-0.95,1.27-0.52,2C332.53-564.1,333.51-563.74,334.16-564.21z"/>
			<path class="st1" d="M345.64-569.66c-0.36-0.08-0.81-0.08-1.13,0.15c-0.83,0.59-1.66,1.17-2.49,1.76
				c-0.17,0.09-0.31,0.22-0.41,0.38c-0.13,0.14-0.22,0.31-0.26,0.5c-0.1,0.35-0.05,0.82,0.15,1.13c0.2,0.31,0.5,0.59,0.87,0.67
				c0.36,0.08,0.81,0.08,1.13-0.15c0.83-0.59,1.66-1.17,2.49-1.76c0.17-0.09,0.31-0.22,0.41-0.38c0.13-0.14,0.22-0.31,0.26-0.5
				c0.1-0.35,0.05-0.82-0.15-1.13C346.31-569.3,346.01-569.57,345.64-569.66z"/>
			<path class="st1" d="M255.58-648.63c-0.44-0.68-1.28-0.92-2-0.52c-2.29,1.24-4.57,2.48-6.86,3.72c-0.67,0.37-0.94,1.35-0.52,2
				c0.44,0.68,1.28,0.92,2,0.52c2.29-1.24,4.57-2.48,6.86-3.72C255.73-646.99,256-647.98,255.58-648.63z"/>
			<path class="st1" d="M256.49-640.27c0.04-0.19,0.03-0.39-0.03-0.58c-0.11-0.35-0.33-0.7-0.67-0.87c-0.12-0.05-0.23-0.1-0.35-0.15
				c-0.26-0.07-0.52-0.07-0.78,0c-0.62,0.11-1.24,0.23-1.86,0.34c-0.19,0.05-0.36,0.13-0.5,0.26c-0.16,0.1-0.28,0.24-0.38,0.41
				c-0.11,0.17-0.16,0.35-0.17,0.54c-0.04,0.19-0.03,0.39,0.03,0.58c0.11,0.35,0.33,0.7,0.67,0.87c0.12,0.05,0.23,0.1,0.35,0.15
				c0.26,0.07,0.52,0.07,0.78,0c0.62-0.11,1.24-0.23,1.86-0.34c0.19-0.05,0.36-0.13,0.5-0.26c0.16-0.1,0.28-0.24,0.38-0.41
				C256.42-639.89,256.48-640.07,256.49-640.27z"/>
			<path class="st1" d="M352.34-596.74c0.8-0.04,1.45-0.64,1.46-1.46c0.03-2.41,0.05-4.82,0.08-7.23c0.01-0.77-0.68-1.5-1.46-1.46
				c-0.8,0.04-1.45,0.64-1.46,1.46c-0.03,2.41-0.05,4.82-0.08,7.23C350.87-597.44,351.56-596.7,352.34-596.74z"/>
			<path class="st1" d="M358.1-596.21c0.79,0.18,1.56-0.24,1.8-1.02c0.96-3.12,1.12-6.4,0.54-9.6c-0.13-0.75-1.1-1.25-1.8-1.02
				c-0.81,0.26-1.17,0.99-1.02,1.8c0.12,0.66,0.17,1.1,0.22,1.87c0.04,0.73,0.04,1.46-0.01,2.19c-0.08,1.34-0.32,2.58-0.76,3.99
				C356.86-597.28,357.35-596.38,358.1-596.21z"/>
			<path class="st1" d="M254.78-475.27c0.19,0.14,0.29,0.36,0.29,0.59c0,0.23-0.11,0.45-0.3,0.59c-4.1,3.05-7.27,7.15-9.16,11.88
				c-0.11,0.28-0.41,0.45-0.68,0.46c-0.3,0-0.57-0.18-0.68-0.46c-1.9-4.73-5.08-8.84-9.19-11.88c-0.19-0.14-0.3-0.36-0.3-0.59
				c0-0.23,0.11-0.45,0.29-0.59c4.11-3.05,7.29-7.17,9.19-11.89c0.11-0.28,0.38-0.46,0.68-0.46c0,0,0,0,0,0
				c0.3,0,0.57,0.18,0.68,0.46C247.51-482.44,250.67-478.33,254.78-475.27z M253.15-474.68c-3.51-2.8-6.31-6.35-8.2-10.38
				c-1.9,4.03-4.72,7.58-8.23,10.38c3.51,2.78,6.32,6.32,8.23,10.36C246.84-468.35,249.64-471.9,253.15-474.68z"/>
			<path class="st1" d="M211.99-472.15c-1.94,1.44-3.44,3.38-4.33,5.61c-0.11,0.28-0.38,0.46-0.68,0.46c0,0,0,0,0,0
				c-0.3,0-0.57-0.18-0.68-0.46c-0.9-2.24-2.4-4.18-4.34-5.61c-0.19-0.14-0.3-0.36-0.3-0.59c0-0.23,0.11-0.45,0.29-0.59
				c1.94-1.44,3.44-3.38,4.34-5.62c0.11-0.28,0.4-0.46,0.68-0.46c0.3,0,0.57,0.18,0.68,0.46c0.89,2.23,2.39,4.17,4.33,5.62
				c0.18,0.14,0.29,0.36,0.29,0.59C212.29-472.51,212.18-472.29,211.99-472.15z M210.38-472.74c-1.39-1.18-2.54-2.61-3.4-4.21
				c-0.86,1.6-2.01,3.03-3.41,4.21c1.39,1.18,2.55,2.6,3.41,4.2C207.84-470.13,208.99-471.56,210.38-472.74z"/>
			<path class="st1" d="M232.94-457.92c0,2.14-1.74,3.88-3.88,3.88c-2.14,0-3.88-1.74-3.88-3.88s1.74-3.88,3.88-3.88
				C231.2-461.8,232.94-460.06,232.94-457.92z M231.48-457.92c0-1.33-1.08-2.42-2.42-2.42c-1.33,0-2.42,1.08-2.42,2.42
				s1.08,2.42,2.42,2.42C230.39-455.51,231.48-456.59,231.48-457.92z"/>
			<path class="st1" d="M437.93-628.64c0.79-0.04,1.46-0.64,1.46-1.46c0-1.53,0-3.06,0-4.6c0-0.76-0.67-1.5-1.46-1.46
				c-0.79,0.04-1.46,0.64-1.46,1.46c0,1.53,0,3.06,0,4.6C436.47-629.34,437.14-628.6,437.93-628.64z"/>
			<path class="st1" d="M439.39-621.71c0-0.76-0.67-1.5-1.46-1.46c-0.79,0.04-1.46,0.64-1.46,1.46c0,1.53,0,3.07,0,4.6
				c0,0.76,0.67,1.5,1.46,1.46c0.79-0.04,1.46-0.64,1.46-1.46C439.39-618.64,439.39-620.17,439.39-621.71z"/>
			<path class="st1" d="M442.13-624.44c1.53,0,3.06,0,4.6,0c0.76,0,1.5-0.67,1.46-1.46c-0.04-0.79-0.64-1.46-1.46-1.46
				c-1.53,0-3.06,0-4.6,0c-0.76,0-1.5,0.67-1.46,1.46C440.7-625.11,441.31-624.44,442.13-624.44z"/>
			<path class="st1" d="M435.19-625.9c-0.04-0.79-0.64-1.46-1.46-1.46c-1.53,0-3.06,0-4.6,0c-0.76,0-1.5,0.67-1.46,1.46
				c0.04,0.79,0.64,1.46,1.46,1.46c1.53,0,3.06,0,4.6,0C434.5-624.44,435.23-625.11,435.19-625.9z"/>
			<path class="st1" d="M440.51-341.26c-0.79,0.04-1.46,0.64-1.46,1.46c0,1.53,0,3.06,0,4.6c0,0.76,0.67,1.5,1.46,1.46
				c0.79-0.04,1.46-0.64,1.46-1.46c0-1.53,0-3.06,0-4.6C441.98-340.57,441.3-341.3,440.51-341.26z"/>
			<path class="st1" d="M440.51-328.27c-0.79,0.04-1.46,0.64-1.46,1.46c0,1.53,0,3.06,0,4.6c0,0.76,0.67,1.5,1.46,1.46
				c0.79-0.04,1.46-0.64,1.46-1.46c0-1.53,0-3.06,0-4.6C441.98-327.57,441.3-328.31,440.51-328.27z"/>
			<path class="st1" d="M449.31-332.47c-1.53,0-3.06,0-4.6,0c-0.76,0-1.5,0.67-1.46,1.46c0.04,0.79,0.64,1.46,1.46,1.46
				c1.53,0,3.06,0,4.6,0c0.76,0,1.5-0.67,1.46-1.46C450.73-331.8,450.13-332.47,449.31-332.47z"/>
			<path class="st1" d="M436.32-332.47c-1.53,0-3.06,0-4.6,0c-0.76,0-1.5,0.67-1.46,1.46c0.04,0.79,0.64,1.46,1.46,1.46
				c1.53,0,3.06,0,4.6,0c0.76,0,1.5-0.67,1.46-1.46C437.74-331.8,437.14-332.47,436.32-332.47z"/>
			<path class="st1" d="M213.27-355.14c-0.79,0.04-1.46,0.64-1.46,1.46c0,1.53,0,3.06,0,4.6c0,0.76,0.67,1.5,1.46,1.46
				c0.79-0.04,1.46-0.64,1.46-1.46c0-1.53,0-3.07,0-4.6C214.73-354.44,214.06-355.18,213.27-355.14z"/>
			<path class="st1" d="M213.27-342.15c-0.79,0.04-1.46,0.64-1.46,1.46c0,1.53,0,3.06,0,4.6c0,0.76,0.67,1.5,1.46,1.46
				c0.79-0.04,1.46-0.64,1.46-1.46c0-1.53,0-3.06,0-4.6C214.73-341.45,214.06-342.18,213.27-342.15z"/>
			<path class="st1" d="M222.06-346.35c-1.53,0-3.06,0-4.6,0c-0.76,0-1.5,0.67-1.46,1.46c0.04,0.79,0.64,1.46,1.46,1.46
				c1.53,0,3.06,0,4.6,0c0.76,0,1.5-0.67,1.46-1.46C223.49-345.68,222.88-346.35,222.06-346.35z"/>
			<path class="st1" d="M209.07-346.35c-1.53,0-3.06,0-4.6,0c-0.76,0-1.5,0.67-1.46,1.46c0.04,0.79,0.64,1.46,1.46,1.46
				c1.53,0,3.06,0,4.6,0c0.76,0,1.5-0.67,1.46-1.46C210.5-345.68,209.89-346.35,209.07-346.35z"/>
			<path class="st1" d="M204.14-533.96c0-2.86,2.33-5.19,5.19-5.19c2.86,0,5.18,2.33,5.18,5.19c0,2.86-2.33,5.19-5.18,5.19
				C206.47-528.78,204.14-531.11,204.14-533.96z M207.06-533.96c0,1.25,1.01,2.26,2.26,2.26c1.25,0,2.26-1.01,2.26-2.26
				c0-1.25-1.01-2.26-2.26-2.26C208.08-536.23,207.06-535.21,207.06-533.96z"/>
			<path class="st1" d="M387.47-502.74c0,2.86-2.33,5.18-5.18,5.18s-5.19-2.33-5.19-5.18c0-2.86,2.33-5.19,5.19-5.19
				S387.47-505.6,387.47-502.74z M384.55-502.74c0-1.25-1.01-2.26-2.26-2.26c-1.25,0-2.26,1.01-2.26,2.26
				c0,1.25,1.01,2.26,2.26,2.26C383.53-500.48,384.55-501.49,384.55-502.74z"/>
		</g>
		<g>
			<path class="st1" d="M626.6-806.8c3.96,7.28,4.39,15.61,2.94,23.63c-1.48,8.16-4.84,15.86-8.38,23.3
				c-3.74,7.86-7.72,15.6-11.92,23.22c-4.2,7.62-8.63,15.12-13.28,22.48c-2.29,3.62-4.59,7.24-7.03,10.76
				c-2.24,3.23-4.77,6.36-8.24,8.33c-1.74,0.99-3.56,1.62-5.42,1.99c-1.37,4.44-3.04,8.95-5.67,12.76c0.04,0.03,0.07,0.05,0.11,0.09
				c3.89,3.71,6.66,8.57,7.95,13.78c0.58,2.32,0.87,4.73,0.85,7.12c-0.02,2.44-0.3,5-1.24,7.26c-0.99,2.39-2.78,4.39-5.3,5.18
				c-2.25,0.71-4.7,0.08-6.36-1.59c-1.48-1.49-2.29-3.56-2.73-5.58c-0.55-2.51-0.71-5.15-0.74-7.71c-0.04-4.26,0.48-8.52,1.54-12.65
				c-7.18,4.71-16.09,2.58-23.47-0.58c-8.02-3.43-15.76-7.71-23.21-12.24c-6.53-3.97-14.06-8.16-18.16-14.86
				c-2.05-3.35-3.03-7.5-2.64-11.41c0.39-3.88,1.93-7.37,3.61-10.83c-1.62-1.81-2.86-3.92-3.62-6.32
				c-1.97-6.23-0.13-12.97,2.07-18.87c1.78-4.76,4.12-9.46,5.44-14.41c-0.48-0.25-0.91-0.63-1.24-1.09
				c-2.2-3.08-4.15-6.34-5.67-9.81c-3.17-7.22-4.78-15.5-2.3-23.2c1.91-5.93,6.59-10.94,12.27-13.45c5.7-2.52,12.52-2.8,17.7,1.09
				c2.56,1.92,4.56,4.99,7.33,6.3c0.97,0.46,2.17,0.5,3.3,0.03c1.26-0.53,2.47-1.61,3.34-2.76c2.22-2.92,2.82-6.78,3.86-10.21
				c1.14-3.75,2.83-7.21,5.57-10.05c4.93-5.12,12.09-7.66,19.07-8.1c8.6-0.54,17.07,2.26,24.99,5.28
				c6.76,2.58,13.61,5.18,19.87,8.84C617.75-817.57,623.26-812.94,626.6-806.8z M570.32-829.35c3.68,4.51,7.24,9.11,10.67,13.81
				c1.24,1.71,2.45,3.45,3.66,5.18c7.77-2.18,15.57-4.23,23.42-6.13c-2.83-1.6-5.81-2.98-8.77-4.24c-6.83-2.91-13.96-5.8-21.22-7.51
				C575.53-828.84,572.92-829.24,570.32-829.35z M546.14-725.63c8.92-3.05,17.92-5.88,27-8.42c2.39-0.67,4.78-1.31,7.18-1.94
				c-0.59-0.89-1.19-1.77-1.77-2.67c-5.51-8.43-10.82-17-15.94-25.68c-4.38,1.25-8.75,2.55-13.1,3.91
				c-6.55,2.05-13.05,4.22-19.52,6.52c2.96,5.96,6.08,11.83,9.45,17.57C541.58-732.71,543.81-729.14,546.14-725.63z M544.97-722.14
				c-6.08,2.11-12.13,4.32-18.15,6.61c7.37,3.08,14.92,5.82,22.16,9.03c4.47,1.98,8.87,4.66,13.54,6.35
				c-4.95-5.27-9.56-10.86-13.83-16.7C547.43-718.59,546.19-720.36,544.97-722.14z M551.79-764.2c3.09-0.95,6.19-1.85,9.3-2.74
				c-0.83-1.42-1.67-2.83-2.48-4.25c-4.5-7.84-8.83-15.77-13.01-23.79c0,0,0,0-0.01,0c-9.76,3.43-19.44,7.1-29.02,10.99
				c0.5,1.23,0.99,2.47,1.5,3.7c3.13,7.54,6.42,15.02,9.95,22.38c0.22,0.46,0.45,0.91,0.67,1.36
				C536.34-759.27,544.04-761.83,551.79-764.2z M563.99-767.77c4.19-1.17,8.4-2.3,12.62-3.37c8.29-2.1,16.63-4.01,25.01-5.71
				c0.02,0,0.04-0.01,0.07-0.01c-4.4-8.31-9.18-16.42-14.32-24.29c-1.28-1.96-2.6-3.9-3.93-5.83c-11.78,3.35-23.47,7.03-35.05,11.04
				c1.5,2.88,3.02,5.75,4.56,8.6C556.52-780.75,560.21-774.23,563.99-767.77z M543.94-804.64c1.02,2.02,2.05,4.04,3.09,6.06
				c6.79-2.36,13.61-4.61,20.47-6.74c4.71-1.46,9.44-2.85,14.18-4.21c-4.76-6.79-9.79-13.4-15.09-19.78
				c-2.89,0.21-5.72,0.85-8.37,2.07c-2.82,1.29-5.21,2.94-7.16,5.34c-2.06,2.52-3.01,5.95-3.9,9.16
				C546.36-809.89,545.46-807.12,543.94-804.64z M508.03-805.59c0.32,0.84,0.65,1.68,0.97,2.51c2.12,5.48,4.28,10.94,6.48,16.39
				c3.78-1.54,7.57-3.04,11.38-4.5c5.77-2.22,11.57-4.34,17.4-6.4c-0.76-1.48-1.51-2.96-2.26-4.45c-2.26,2.47-5.59,4.37-9.01,4.13
				c-3.69-0.26-6.42-2.46-8.93-4.98c-0.95-0.96-2.16-2.22-3.04-2.83c-0.58-0.4-1.19-0.76-1.83-1.05c-0.2-0.09-0.63-0.25-1.23-0.42
				c-1.34-0.37-1.85-0.43-3.43-0.36c-0.3,0.01-0.6,0.04-0.9,0.07c-0.07,0.02-0.59,0.09-0.68,0.11c-0.59,0.11-1.18,0.26-1.76,0.44
				C510.13-806.62,509.06-806.16,508.03-805.59z M503.47-746.83c0.02-0.01,0.03-0.01,0.05-0.02c7.41-3.07,14.88-5.97,22.42-8.7
				c-0.6-1.24-1.2-2.48-1.79-3.73c-3.54-7.53-6.83-15.17-9.98-22.86c-0.1-0.25-0.2-0.49-0.3-0.74c-2.72,1.12-5.44,2.25-8.14,3.4
				c-0.73,0.31-1.56,0.23-2-0.52c-0.36-0.62-0.2-1.69,0.52-2c2.84-1.21,5.69-2.39,8.54-3.56c-2.47-6.11-4.88-12.24-7.25-18.39
				c-0.26,0.21-0.52,0.42-0.76,0.63c-0.55,0.49-1.07,1.01-1.56,1.56c-0.21,0.23-0.42,0.47-0.62,0.72c-0.24,0.29-0.12,0.13-0.4,0.54
				c-0.42,0.6-0.81,1.22-1.15,1.87c-0.15,0.28-0.29,0.55-0.42,0.84c-0.05,0.11-0.1,0.22-0.15,0.33c-0.01,0.02-0.02,0.05-0.04,0.12
				c-1.21,3.16-1.5,6.55-1.2,9.91c0.6,6.64,3.75,12.91,7.49,18.36c0.43-0.08,0.86-0.08,1.25,0.03c1.64,0.45,2.29,2.04,2.04,3.6
				c-0.44,2.7-1.32,5.3-2.29,7.85C506.37-754.01,504.77-750.47,503.47-746.83z M501.66-732.81c0.73,2.69,2.4,5,4.92,6.73
				c5.22,3.59,10.85,6.44,16.63,9c0.18-0.2,0.42-0.36,0.68-0.46c6.05-2.33,12.13-4.58,18.25-6.73c0.38-0.13,0.76-0.26,1.14-0.39
				c-2.75-4.16-5.37-8.41-7.85-12.73c-2.91-5.08-5.63-10.27-8.23-15.52c-0.67,0.24-1.34,0.48-2.01,0.72
				c-7.7,2.82-15.33,5.82-22.89,8.99c-0.28,1-0.54,2.01-0.73,3.03c-0.07,0.38-0.14,0.76-0.2,1.15c-0.02,0.14-0.02,0.13-0.06,0.52
				c-0.07,0.7-0.11,1.39-0.11,2.09C501.22-734.86,501.29-734.18,501.66-732.81z M503.2-706.39c1.4-4.04,3.05-7.99,4.64-11.95
				c-1.16-0.68-2.29-1.4-3.4-2.15c-1.35,2.84-2.53,5.78-2.46,8.92C502.03-709.71,502.46-707.98,503.2-706.39z M505.85-704.46
				c0.55-1.44,1.12-2.88,1.71-4.31c1.1-2.63,2.28-5.22,3.53-7.78c-0.77-0.41-1.54-0.83-2.31-1.27c-1.55,4.29-3.05,8.61-4.85,12.8
				c0.42,0.68,0.89,1.34,1.42,1.96C505.53-703.52,505.68-704,505.85-704.46z M518.84-695.95c0.75-1.54,1.52-3.06,2.29-4.59
				c1.56-3.07,3.17-6.11,4.82-9.13c-4.33-1.79-8.62-3.67-12.79-5.8c-0.1-0.05-0.19-0.1-0.29-0.15c-1.22,2.51-2.39,5.05-3.46,7.63
				c-0.6,1.43-1.17,2.86-1.72,4.3c-0.28,0.73-0.57,1.45-0.86,2.17c1.91,1.85,4.06,3.43,6.28,4.9c1.53,1.01,3.07,1.99,4.63,2.96
				C518.09-694.42,518.47-695.18,518.84-695.95z M521.68-691.27c2.76-5.6,5.64-11.13,8.47-16.69c-0.84-0.34-1.67-0.67-2.51-1.02
				c-0.01,0.02-0.01,0.04-0.02,0.07c-1.65,3.04-3.25,6.11-4.81,9.2c-0.79,1.56-1.56,3.13-2.33,4.71c-0.36,0.73-0.7,1.47-1.08,2.19
				c-0.02,0.04-0.04,0.09-0.07,0.13C520.12-692.2,520.9-691.73,521.68-691.27z M533.26-687.86c0.85-1.84,1.7-3.67,2.56-5.5
				c1.64-3.45,3.27-6.89,4.91-10.34c-1.59-0.66-3.19-1.31-4.79-1.94c-1.56-0.62-3.12-1.24-4.68-1.87
				c-2.77,5.66-5.5,11.36-8.35,16.99c0.16,0.09,0.31,0.19,0.47,0.28c2.86,1.67,5.78,3.34,8.74,4.93
				C532.48-686.17,532.86-687.01,533.26-687.86z M535.59-683.9c0.55-1.48,1.42-2.9,2.15-4.29c0.78-1.5,1.56-3,2.35-4.5
				c1.6-3.07,3.2-6.14,4.81-9.22c0-0.01,0.01-0.01,0.01-0.02c-0.96-0.42-1.91-0.84-2.88-1.24c-1.58,3.46-3.15,6.93-4.73,10.39
				c-0.84,1.84-1.69,3.68-2.55,5.51c-0.42,0.9-0.84,1.79-1.28,2.67c0.61,0.32,1.22,0.63,1.84,0.94
				C535.37-683.76,535.47-683.85,535.59-683.9z M551.35-679.56c1.01-1.75,1.96-3.53,2.85-5.35c1.69-3.44,3.22-6.92,4.48-10.54
				c-0.26-0.11-0.53-0.21-0.79-0.33c-3.69-1.58-7.19-3.57-10.85-5.23c-0.38-0.17-0.77-0.33-1.15-0.5c-0.01,0.03-0.01,0.05-0.02,0.07
				c-1.55,3.1-3.1,6.19-4.66,9.29c-0.78,1.55-1.55,3.1-2.33,4.65c-0.69,1.38-1.32,2.9-2.19,4.19c0.02,0.11,0.01,0.23-0.02,0.33
				c2.52,1.24,5.07,2.39,7.66,3.39c1.93,0.74,3.92,1.39,5.95,1.76C550.65-678.39,551.01-678.97,551.35-679.56z M555.02-677.49
				c0.3-0.54,0.75-1.05,1.07-1.55c0.42-0.67,0.83-1.34,1.21-2.03c0.8-1.44,1.51-2.94,2.13-4.47c1.14-2.82,1.92-5.76,2.36-8.77
				c-0.69-0.22-1.37-0.46-2.04-0.72c-1.15,3.64-2.46,7.27-4.1,10.71c-0.92,1.92-1.91,3.81-2.96,5.66c-0.21,0.37-0.44,0.73-0.65,1.09
				C553.02-677.46,554.02-677.42,555.02-677.49z M569.04-692.79c-2.18-0.19-4.35-0.64-6.46-1.28c-0.44,3.01-1.21,5.97-2.35,8.81
				c-0.63,1.57-1.37,3.08-2.21,4.55c-0.43,0.75-0.89,1.48-1.37,2.2c-0.18,0.27-0.37,0.6-0.58,0.91c2.57-0.42,4.86-1.71,6.59-3.42
				C565.83-684.15,567.63-688.45,569.04-692.79z M567.8-678.01c-0.06,0.07-0.11,0.14-0.17,0.2c0.02,0.18,0.01,0.37-0.05,0.56
				c-1.8,5.28-2.65,10.83-2.48,16.41c0.06,2.17,0.2,4.39,0.73,6.5c0.4,1.6,1,3.18,2.29,4.18c0.02,0.01,0.09,0.06,0.11,0.07
				c0.09,0.06,0.17,0.11,0.26,0.16c0.04,0.02,0.38,0.18,0.39,0.19c0.4,0.15,0.76,0.22,1.16,0.22c0.86,0,1.69-0.33,2.43-0.84
				c1.69-1.17,2.42-3.25,2.79-5.18C576.8-663.59,573.61-672.36,567.8-678.01z M603.63-738.61c-5.28,1.17-10.56,2.38-15.8,3.69
				c-0.94,0.23-1.87,0.48-2.8,0.72c2.66,3.98,5.35,7.93,8.09,11.85c0.46,0.65,0.11,1.63-0.52,2c-0.72,0.42-1.55,0.12-2-0.52
				c-2.9-4.15-5.75-8.34-8.56-12.55c-8.55,2.24-17.04,4.69-25.46,7.39c-2.92,0.94-5.83,1.9-8.73,2.89c1.62,2.36,3.27,4.7,4.99,6.98
				c4.62,6.14,9.67,11.96,15.1,17.41c0.36,0.05,0.71,0.1,1.08,0.14c3.24,0.31,6.43-0.07,9.24-1.81c2.86-1.78,4.82-4.7,6.66-7.44
				C591.57-717.85,597.81-728.11,603.63-738.61z M612.25-754.9c-2.26-5.23-4.67-10.4-7.22-15.5c-0.63-1.26-1.27-2.52-1.92-3.78
				c-1.28,0.26-2.57,0.51-3.85,0.78c-8.37,1.75-16.7,3.71-24.98,5.86c-2.93,0.76-5.84,1.56-8.76,2.37
				c2.15,3.63,4.32,7.25,6.54,10.84c3.65,5.91,7.4,11.75,11.23,17.54c7.36-1.9,14.77-3.64,22.2-5.25c1.54-2.85,3.07-5.7,4.55-8.58
				C610.79-752.03,611.52-753.46,612.25-754.9z M622.15-777.66c-5.37,0.88-10.73,1.84-16.07,2.89c2.78,5.42,5.41,10.93,7.87,16.51
				c2.29-4.59,4.47-9.25,6.31-14.02C620.94-774.04,621.58-775.84,622.15-777.66z M624.39-794.28c-0.56-6.63-3.79-12.4-8.62-16.77
				c-1.54-1.4-3.23-2.64-4.99-3.78c-0.11,0.43-0.43,0.79-1,0.93c-7.79,1.87-15.54,3.88-23.25,6.03c-0.04,0.01-0.08,0.02-0.12,0.04
				c4.94,7.24,9.58,14.68,13.89,22.32c1.51,2.67,2.97,5.35,4.39,8.06c6.09-1.2,12.21-2.3,18.34-3.28
				C624.17-785.17,624.78-789.71,624.39-794.28z"/>
			<path class="st1" d="M480.72-858.37c0.19,0.14,0.29,0.36,0.29,0.59c0,0.23-0.11,0.45-0.3,0.59c-4.1,3.05-7.27,7.15-9.16,11.88
				c-0.11,0.28-0.41,0.45-0.68,0.46c-0.3,0-0.57-0.18-0.68-0.46c-1.9-4.73-5.08-8.84-9.19-11.88c-0.19-0.14-0.3-0.36-0.3-0.59
				c0-0.23,0.11-0.45,0.3-0.59c4.11-3.05,7.29-7.17,9.19-11.89c0.11-0.28,0.38-0.46,0.68-0.46c0,0,0,0,0,0
				c0.3,0,0.57,0.18,0.68,0.46C473.45-865.55,476.61-861.44,480.72-858.37z M479.09-857.79c-3.51-2.8-6.31-6.35-8.2-10.38
				c-1.9,4.03-4.72,7.58-8.23,10.38c3.51,2.78,6.32,6.32,8.23,10.36C472.78-851.46,475.58-855,479.09-857.79z"/>
			<path class="st1" d="M458.88-841.03c0,2.14-1.74,3.88-3.88,3.88c-2.14,0-3.88-1.74-3.88-3.88c0-2.14,1.74-3.88,3.88-3.88
				C457.14-844.91,458.88-843.16,458.88-841.03z M457.42-841.03c0-1.33-1.08-2.42-2.42-2.42c-1.33,0-2.42,1.08-2.42,2.42
				c0,1.33,1.08,2.42,2.42,2.42C456.34-838.61,457.42-839.69,457.42-841.03z"/>
			<path class="st1" d="M439.21-738.25c-0.79,0.04-1.46,0.64-1.46,1.46c0,1.53,0,3.06,0,4.6c0,0.76,0.67,1.5,1.46,1.46
				c0.79-0.04,1.46-0.64,1.46-1.46c0-1.53,0-3.06,0-4.6C440.67-737.55,440-738.28,439.21-738.25z"/>
			<path class="st1" d="M439.21-725.25c-0.79,0.04-1.46,0.64-1.46,1.46c0,1.53,0,3.06,0,4.6c0,0.76,0.67,1.5,1.46,1.46
				c0.79-0.04,1.46-0.64,1.46-1.46c0-1.53,0-3.06,0-4.6C440.67-724.56,440-725.29,439.21-725.25z"/>
			<path class="st1" d="M448.01-729.45c-1.53,0-3.06,0-4.6,0c-0.76,0-1.5,0.67-1.46,1.46c0.04,0.79,0.64,1.46,1.46,1.46
				c1.53,0,3.06,0,4.6,0c0.76,0,1.5-0.67,1.46-1.46C449.43-728.78,448.82-729.45,448.01-729.45z"/>
			<path class="st1" d="M435.01-729.45c-1.53,0-3.06,0-4.6,0c-0.76,0-1.5,0.67-1.46,1.46c0.04,0.79,0.64,1.46,1.46,1.46
				c1.53,0,3.06,0,4.6,0c0.76,0,1.5-0.67,1.46-1.46C436.44-728.78,435.83-729.45,435.01-729.45z"/>
		</g>
		<g>
			<path class="st1" d="M319.07-893.32c-2.38,13.09-7.3,25.91-15.13,36.72c-3.54,4.82-7.83,8.97-12.89,12.18
				c-4.61,2.93-9.76,4.93-15.06,5.83c-0.02,0.14-0.03,0.28-0.07,0.41c-1.67,5.48-2.85,11.1-4.45,16.6
				c4.78,4.95,6.07,12.37,5.45,19.01c-0.63,6.81-2.83,13.31-5.44,19.6c-2.41,5.8-5.61,12.01-11.52,14.91
				c-5.47,2.68-12.01,2.26-17.53-0.05c-4.93-2.07-9.6-5.87-11.13-11.19c-1.06-3.7-0.98-7.8-0.72-11.6c0.33-4.95,1.11-9.9,2.32-14.71
				c1.15-4.59,2.7-9.21,5.05-13.34c1.91-3.34,4.58-6.61,8.39-7.77c0.17-0.05,0.34-0.08,0.5-0.1c1.47-5.49,3.21-10.91,4.1-16.53
				c-8.03-4.89-13.96-12.57-17.36-21.47c-5.18-13.56-3.87-28.19-0.31-41.96c3.05-11.78,7.68-23.46,15.25-33.09
				c5.43-6.9,15.28-15.58,24.39-9.53c1.92,1.27,3.45,2.89,4.68,4.71c1.52-1.32,3.17-2.44,5.01-3.16c3.83-1.51,7.75-0.36,10.75,2.28
				c1.98,1.75,3.46,3.99,4.68,6.36c1.51-0.86,3.13-1.5,4.85-1.78c4.6-0.76,9.34,0.86,12.36,4.46c2.85,3.4,4.22,7.78,4.9,12.1
				C321.74-914.21,320.91-903.41,319.07-893.32z M280.33-939.08c0.62,1.79,1.07,3.65,1.39,5.5c0.72,4.08,1.16,8.21,1.41,12.35
				c0.11-0.2,0.21-0.4,0.32-0.6c2.39-4.34,5.08-8.59,8.42-12.26c0.46-0.5,0.94-0.99,1.43-1.47c-0.16-0.33-0.31-0.66-0.48-0.99
				c-0.42-0.79-0.88-1.56-1.38-2.31c-0.18-0.27-0.38-0.54-0.57-0.8c0.01,0.04-0.54-0.65-0.66-0.77c-0.29-0.32-0.6-0.62-0.92-0.91
				c-0.1-0.09-0.22-0.18-0.32-0.27c-0.01-0.01-0.01-0.02-0.03-0.03c-0.01-0.01-0.02-0.01-0.03-0.02c-0.28-0.17-0.55-0.37-0.84-0.53
				c-0.13-0.07-0.26-0.13-0.39-0.2c-0.34-0.09-0.7-0.19-1.04-0.29c-0.01,0-0.01,0-0.01,0c-0.12,0.01-0.26-0.01-0.39-0.01
				c-0.18,0-0.35,0.02-0.53,0.02c-0.38,0.09-0.76,0.22-1.13,0.31c-0.04,0.01-0.06,0.01-0.08,0.02c-0.02,0.01-0.04,0.02-0.07,0.04
				c-0.22,0.12-0.44,0.22-0.66,0.34c-0.39,0.22-0.76,0.46-1.12,0.71c-0.05,0.04-0.1,0.07-0.13,0.09c-0.23,0.18-0.45,0.37-0.66,0.56
				c-0.41,0.37-0.81,0.75-1.19,1.15C280.55-939.33,280.44-939.2,280.33-939.08z M279.2-864.73c4.45-2.19,7.55-7.17,9.83-11.32
				c5.26-9.57,7.93-20.76,8.69-31.61c0.54-7.6,0.1-14.76-2.09-21.9c-2.41,2.72-4.31,5.72-6.24,9.08c-1.93,3.36-3.63,6.83-5.35,10.3
				c-0.22,0.45-0.45,0.9-0.67,1.36c-0.08,6.85-0.45,13.71-1.09,20.52c-0.35,3.76-0.83,7.51-1.07,11.27
				c-0.16,2.53-0.01,5.06-0.37,7.58C280.61-867.77,280.09-866.14,279.2-864.73z M275.24-933.02c-3.41,4.61-6.3,9.61-8.62,14.86
				c-4.53,10.26-6.71,21.6-6.36,32.8c0.05,1.47,0.13,2.93,0.27,4.39c0.06,0.66,0.13,1.33,0.21,1.99c0.01,0.1,0.02,0.18,0.03,0.24
				c0.01,0.03,0.01,0.07,0.02,0.12c0.03,0.17,0.06,0.34,0.09,0.51c0.19,1.03,0.45,2.06,0.76,3.06c0.16,0.51,0.33,1.01,0.52,1.5
				c0.05,0.13,0.1,0.26,0.15,0.39c0.02,0.03,0.23,0.53,0.23,0.54c0.45,0.97,0.95,1.92,1.54,2.82c0.62,0.95,0.63,1,1.45,1.85
				c0.33,0.34,0.67,0.67,1.04,0.97c0.08,0.05,0.38,0.27,0.41,0.29c0.22,0.14,0.44,0.27,0.66,0.39c-0.15-0.76-0.27-1.53-0.37-2.29
				c-0.91-7.16,0.09-14.46,2.07-21.36c2.02-7.05,5.05-13.79,8.27-20.37c0.02-0.04,0.04-0.07,0.05-0.11
				c0.04-6.99-0.34-13.97-1.45-20.8c-0.13-0.82-0.28-1.64-0.45-2.47C275.59-933.48,275.41-933.25,275.24-933.02z M272.78-874.47
				c-0.02,2.39-0.03,5.11,0.64,7.5c0.15-0.1,0.29-0.21,0.4-0.32c0.1-0.1,0.2-0.2,0.29-0.31c0.03-0.04,0.05-0.08,0.09-0.14
				c0.13-0.21,0.25-0.42,0.36-0.64c0.03-0.05,0.04-0.08,0.06-0.1c0.02-0.05,0.03-0.08,0.05-0.15c0.1-0.28,0.18-0.57,0.26-0.86
				c0.28-1.1,0.27-1.37,0.33-2.62c0.11-2.48,0.1-4.93,0.32-7.4c0.32-3.5,0.71-7,1.01-10.51c0.13-1.46,0.24-2.93,0.36-4.4
				C274.54-887.99,272.85-881.36,272.78-874.47z M271.22-805.84c-0.02-2.95-0.49-6-1.83-8.65c-1.06-2.11-2.54-3.71-4.42-4.92
				c-2.18-1.4-4.27-2.12-6.92-2.61c-1.08-0.2-2.09-0.3-3.44-0.33c-0.64-0.01-1.28,0-1.91,0.03c-0.31,0.02-0.63,0.04-0.94,0.07
				c0,0-1.01,0.11-0.45,0.04c-0.43,0.06-0.86,0.05-1.26-0.01c-0.2,0.05-0.41,0.07-0.62,0.08c-0.33,0.47-0.83,0.86-1.53,1.07
				c-0.06,0.02-0.12,0.04-0.18,0.06c0.03-0.01-0.1,0.03-0.22,0.08c-0.07,0.03-0.14,0.05-0.22,0.08c0.08-0.02,0.13-0.04,0.18-0.06
				c-0.03,0.01-0.06,0.03-0.08,0.04c-0.35,0.2-0.68,0.42-1.02,0.63c0,0,0,0-0.01,0.01c-0.01,0.01-0.02,0.02-0.03,0.03
				c-0.11,0.11-0.23,0.2-0.35,0.31c-0.33,0.3-0.65,0.63-0.94,0.96c-0.17,0.2-0.34,0.4-0.51,0.6c0,0,0,0-0.01,0.01
				c-0.27,0.39-0.55,0.77-0.8,1.17c-0.55,0.86-1.04,1.74-1.5,2.65c-0.26,0.52-0.51,1.05-0.75,1.58c-0.07,0.16-0.14,0.31-0.2,0.47
				c0,0.01,0,0.01-0.01,0.02c-0.1,0.24-0.2,0.49-0.29,0.73c-0.43,1.09-0.82,2.2-1.18,3.32c-0.75,2.34-1.37,4.73-1.88,7.13
				c-0.24,1.12-0.45,2.24-0.64,3.37c-0.09,0.56-0.18,1.12-0.27,1.68c-0.03,0.21-0.06,0.42-0.09,0.63c-0.01,0.09-0.06,0.49-0.07,0.53
				c-0.25,2.01-0.42,4.03-0.49,6.06c-0.06,1.82-0.05,3.65,0.12,5.46c0.01,0.13,0.03,0.25,0.04,0.38c0,0.05,0.02,0.2,0.03,0.31
				c0,0.03,0.01,0.07,0.01,0.1c0-0.04-0.01-0.06-0.01-0.09c0,0.02,0.01,0.05,0.01,0.06c0.05,0.29,0.1,0.59,0.16,0.88
				c0.12,0.6,0.31,1.16,0.48,1.74c0,0.01,0,0.01,0,0.02c0,0,0,0,0,0c0.14,0.27,0.26,0.54,0.41,0.8c0.15,0.26,0.3,0.52,0.47,0.77
				c-0.01-0.01,0.32,0.45,0.33,0.49c0.66,0.85,1.46,1.62,2.3,2.3c0.28,0.22,0.23,0.18,0.67,0.49c0.26,0.18,0.53,0.35,0.8,0.52
				c0.46,0.28,0.93,0.54,1.4,0.78c1.1,0.56,1.91,0.86,3.24,1.24c2.3,0.65,4.26,0.88,6.81,0.61c0.36-0.04,0.41-0.05,0.14-0.02
				c0.2-0.03,0.4-0.07,0.6-0.11c0.3-0.06,0.59-0.13,0.88-0.21c0.29-0.08,0.57-0.16,0.86-0.26c-0.04,0.01,0.5-0.19,0.55-0.2
				c1-0.43,2.11-1.13,2.78-1.7c2.58-2.18,4.31-5.13,5.71-8.23c-0.08-0.05-0.17-0.09-0.23-0.16c-1.88-2.02-4.11-3.66-6.27-5.37
				c-0.64-0.51-0.49-1.54,0-2.07c0.25-0.27,0.68-0.43,1.03-0.43c0.42,0,0.72,0.18,1.03,0.43c1.92,1.53,3.9,3.01,5.64,4.74
				c0.27-0.68,0.53-1.36,0.79-2.03c-2.16-2.12-4.17-4.37-6.54-6.27c-0.64-0.51-0.49-1.54,0-2.07c0.57-0.62,1.47-0.48,2.07,0
				c2.01,1.62,3.77,3.49,5.58,5.32c0.23-0.65,0.45-1.31,0.67-1.97c-2.42-2.3-4.85-4.23-7.68-6.03c-0.69-0.44-0.91-1.28-0.52-2
				c0.36-0.68,1.35-0.94,2-0.52c2.52,1.6,4.9,3.42,7.13,5.42C270.68-799.13,271.24-802.46,271.22-805.84z M254.28-828.21
				c4.16,0.04,8.44,0.97,12.15,2.92c1.16-4.24,2.16-8.53,3.37-12.76c-4.52,0.02-9.04-0.79-13.35-2.53
				c-0.02-0.01-0.04-0.02-0.06-0.03c-0.76,4.2-1.95,8.3-3.1,12.41C253.62-828.2,253.95-828.21,254.28-828.21z M314.78-920.55
				c-0.12-1.27-0.17-1.66-0.32-2.59c-0.16-0.97-0.35-1.93-0.59-2.89c-0.25-1.01-0.55-2.02-0.92-2.99c-0.04-0.1-0.07-0.19-0.11-0.29
				c-0.02-0.03-0.19-0.43-0.21-0.47c-0.18-0.39-0.38-0.77-0.59-1.14c-0.25-0.44-0.53-0.85-0.8-1.27c-0.03-0.05-0.05-0.08-0.07-0.11
				c-0.02-0.03-0.04-0.04-0.07-0.08c-0.11-0.12-0.21-0.25-0.32-0.37c-0.27-0.3-0.56-0.57-0.85-0.86c-0.05-0.04-0.29-0.24-0.36-0.29
				c-0.1-0.07-0.19-0.14-0.29-0.2c-0.41-0.27-0.84-0.5-1.28-0.71c-0.01,0-0.01,0-0.01-0.01c-0.03-0.01-0.05-0.01-0.1-0.03
				c-0.25-0.07-0.49-0.16-0.74-0.23c-0.15-0.04-0.86-0.18-0.95-0.21c-0.36-0.04-0.72-0.06-1.07-0.06c-0.29,0-0.57,0.02-0.86,0.04
				c-0.02,0-0.02,0-0.04,0c-0.01,0-0.02,0-0.03,0.01c-0.4,0.09-0.8,0.17-1.19,0.28c-0.13,0.04-0.74,0.26-0.85,0.29
				c-0.42,0.18-0.83,0.39-1.22,0.61c-0.19,0.11-0.37,0.23-0.55,0.35c1.08,2.91,1.92,5.92,2.47,8.97
				c2.06,11.51,0.75,23.82-2.25,35.05c-1.54,5.75-3.65,11.43-6.52,16.65c-3.02,5.5-7.18,11.37-13.12,13.95
				c-3.32,1.44-7.14,1.59-10.03-0.83c-0.53,0.05-1.06,0.08-1.58,0.04c-5-0.33-8.75-3.97-11.06-8.17c-2.56-4.63-3.42-9.64-3.75-14.87
				c-0.4-6.26,0.03-12.54,1.09-18.72c2.12-12.31,7.15-24.24,14.57-34.29c1.03-1.4,2.11-2.88,3.28-4.32
				c-0.99-1.73-2.32-3.31-3.75-4.2c-0.32-0.2-0.65-0.38-0.99-0.55c-0.02-0.01-0.06-0.03-0.1-0.04c-0.4-0.15-0.8-0.27-1.21-0.36
				c-0.08-0.02-0.5-0.07-0.5-0.07c-0.12-0.01-0.24-0.02-0.36-0.02c-0.41-0.01-0.83,0.01-1.24,0.06c-0.1,0.02-0.28,0.05-0.39,0.07
				c-0.25,0.06-0.51,0.12-0.76,0.19c-0.39,0.11-0.78,0.25-1.16,0.4c-0.03,0.03-0.77,0.37-0.89,0.44c-0.42,0.22-0.83,0.46-1.23,0.71
				c-1.78,1.12-3.1,2.29-4.75,3.97c-1.45,1.48-2.93,3.25-3.93,4.59c-2.83,3.81-5.14,7.94-7.14,12.24
				c-2.68,5.8-4.69,11.91-6.26,18.09c-1.6,6.26-2.84,12.59-2.89,19.07c-0.08,11.08,2.89,22.56,10.22,30.84
				c6.74,7.62,16.47,11.87,26.76,10.89c10.21-0.97,19.91-7.31,25.99-15.57c3.46-4.77,6.37-9.93,8.68-15.35
				c4.65-10.91,7.01-22.82,7.41-34.65C315.1-913.22,315.12-916.9,314.78-920.55z"/>
			<path class="st1" d="M247.5-820.95c-0.01,0-0.02,0.01-0.03,0.01c0.16-0.05,0.24-0.08,0.25-0.09
				C247.65-821,247.58-820.97,247.5-820.95z"/>
			<path class="st1" d="M236.49-783.16c0.01,0.1,0.02,0.21,0.03,0.31c0,0.01,0,0.01,0,0.02
				C236.5-783.14,236.49-783.21,236.49-783.16z"/>
			<path class="st1" d="M238.57-783.73c-1.65,0.91-0.17,3.44,1.48,2.52c5.55-3.08,12.75-1.24,16.68,3.75c0.49,0.62,1.56,0.51,2.07,0
				c0.61-0.61,0.49-1.45,0-2.07C254.1-785.47,245.23-787.42,238.57-783.73z"/>
			<path class="st1" d="M174.72-806.8c3.96,7.28,4.39,15.61,2.94,23.63c-1.48,8.16-4.84,15.86-8.38,23.3
				c-3.74,7.86-7.72,15.6-11.92,23.22c-4.2,7.62-8.63,15.12-13.28,22.48c-2.29,3.62-4.59,7.24-7.03,10.76
				c-2.24,3.23-4.77,6.36-8.24,8.33c-1.74,0.99-3.56,1.62-5.42,1.99c-1.37,4.44-3.04,8.95-5.67,12.76c0.04,0.03,0.07,0.05,0.11,0.09
				c3.89,3.71,6.66,8.57,7.95,13.78c0.58,2.32,0.87,4.73,0.85,7.12c-0.02,2.44-0.3,5-1.24,7.26c-0.99,2.39-2.78,4.39-5.3,5.18
				c-2.25,0.71-4.7,0.08-6.36-1.59c-1.48-1.49-2.29-3.56-2.73-5.58c-0.55-2.51-0.71-5.15-0.74-7.71c-0.04-4.26,0.48-8.52,1.54-12.65
				c-7.18,4.71-16.09,2.58-23.47-0.58c-8.02-3.43-15.76-7.71-23.21-12.24c-6.53-3.97-14.06-8.16-18.16-14.86
				c-2.05-3.35-3.03-7.5-2.64-11.41c0.39-3.88,1.93-7.37,3.61-10.83c-1.62-1.81-2.86-3.92-3.62-6.32
				c-1.97-6.23-0.13-12.97,2.07-18.87c1.78-4.76,4.12-9.46,5.44-14.41c-0.48-0.25-0.91-0.63-1.24-1.09
				c-2.2-3.08-4.15-6.34-5.67-9.81c-3.17-7.22-4.78-15.5-2.3-23.2c1.91-5.93,6.59-10.94,12.27-13.45c5.7-2.52,12.52-2.8,17.7,1.09
				c2.56,1.92,4.56,4.99,7.33,6.3c0.97,0.46,2.17,0.5,3.3,0.03c1.26-0.53,2.47-1.61,3.34-2.76c2.22-2.92,2.81-6.78,3.86-10.21
				c1.14-3.75,2.83-7.21,5.57-10.05c4.93-5.12,12.09-7.66,19.07-8.1c8.6-0.54,17.07,2.26,24.99,5.28
				c6.76,2.58,13.61,5.18,19.87,8.84C165.87-817.57,171.38-812.94,174.72-806.8z M118.43-829.35c3.68,4.51,7.24,9.11,10.67,13.81
				c1.24,1.71,2.45,3.45,3.66,5.18c7.77-2.18,15.57-4.23,23.42-6.13c-2.83-1.6-5.81-2.98-8.77-4.24c-6.83-2.91-13.96-5.8-21.22-7.51
				C123.65-828.84,121.04-829.24,118.43-829.35z M94.26-725.63c8.92-3.05,17.92-5.88,27-8.42c2.39-0.67,4.78-1.31,7.18-1.94
				c-0.59-0.89-1.19-1.77-1.77-2.67c-5.51-8.43-10.82-17-15.94-25.68c-4.38,1.25-8.75,2.55-13.1,3.91
				c-6.55,2.05-13.05,4.22-19.52,6.52c2.96,5.96,6.08,11.83,9.45,17.57C89.69-732.71,91.93-729.14,94.26-725.63z M93.09-722.14
				c-6.08,2.11-12.13,4.32-18.15,6.61c7.37,3.08,14.92,5.82,22.16,9.03c4.47,1.98,8.87,4.66,13.54,6.35
				c-4.95-5.27-9.56-10.86-13.83-16.7C95.54-718.59,94.3-720.36,93.09-722.14z M99.91-764.2c3.09-0.95,6.19-1.85,9.3-2.74
				c-0.83-1.42-1.67-2.83-2.48-4.25c-4.5-7.84-8.83-15.77-13.01-23.79c0,0,0,0-0.01,0c-9.76,3.43-19.44,7.1-29.02,10.99
				c0.5,1.23,0.99,2.47,1.5,3.7c3.13,7.54,6.42,15.02,9.95,22.38c0.22,0.46,0.45,0.91,0.67,1.36
				C84.45-759.27,92.15-761.83,99.91-764.2z M112.11-767.77c4.19-1.17,8.4-2.3,12.62-3.37c8.29-2.1,16.63-4.01,25.01-5.71
				c0.02,0,0.04-0.01,0.07-0.01c-4.4-8.31-9.18-16.42-14.32-24.29c-1.28-1.96-2.6-3.9-3.93-5.83c-11.78,3.35-23.47,7.03-35.05,11.04
				c1.5,2.88,3.02,5.75,4.56,8.6C104.64-780.75,108.33-774.23,112.11-767.77z M92.06-804.64c1.02,2.02,2.05,4.04,3.09,6.06
				c6.79-2.36,13.61-4.61,20.47-6.74c4.71-1.46,9.44-2.85,14.18-4.21c-4.76-6.79-9.79-13.4-15.09-19.78
				c-2.89,0.21-5.72,0.85-8.37,2.07c-2.82,1.29-5.21,2.94-7.16,5.34c-2.06,2.52-3.01,5.95-3.9,9.16
				C94.48-809.89,93.57-807.12,92.06-804.64z M56.15-805.59c0.32,0.84,0.65,1.68,0.97,2.51c2.12,5.48,4.28,10.94,6.48,16.39
				c3.78-1.54,7.57-3.04,11.38-4.5c5.77-2.22,11.57-4.34,17.4-6.4c-0.76-1.48-1.51-2.96-2.26-4.45c-2.26,2.47-5.59,4.37-9.01,4.13
				c-3.69-0.26-6.42-2.46-8.93-4.98c-0.95-0.96-2.16-2.22-3.04-2.83c-0.58-0.4-1.19-0.76-1.83-1.05c-0.2-0.09-0.63-0.25-1.23-0.42
				c-1.34-0.37-1.85-0.43-3.43-0.36c-0.3,0.01-0.6,0.04-0.9,0.07c-0.07,0.02-0.59,0.09-0.68,0.11c-0.59,0.11-1.18,0.26-1.76,0.44
				C58.25-806.62,57.18-806.16,56.15-805.59z M51.59-746.83c0.02-0.01,0.03-0.01,0.05-0.02c7.41-3.07,14.88-5.97,22.42-8.7
				c-0.6-1.24-1.2-2.48-1.79-3.73c-3.54-7.53-6.83-15.17-9.98-22.86c-0.1-0.25-0.2-0.49-0.3-0.74c-2.72,1.12-5.44,2.25-8.14,3.4
				c-0.73,0.31-1.56,0.23-2-0.52c-0.36-0.62-0.2-1.69,0.52-2c2.84-1.21,5.69-2.39,8.54-3.56c-2.47-6.11-4.88-12.24-7.25-18.39
				c-0.26,0.21-0.52,0.42-0.76,0.63c-0.55,0.49-1.07,1.01-1.56,1.56c-0.21,0.23-0.42,0.47-0.62,0.72c-0.24,0.29-0.12,0.13-0.4,0.54
				c-0.42,0.6-0.81,1.22-1.15,1.87c-0.15,0.28-0.29,0.55-0.42,0.84c-0.05,0.11-0.1,0.22-0.15,0.33c-0.01,0.02-0.02,0.05-0.04,0.12
				c-1.21,3.16-1.5,6.55-1.2,9.91c0.6,6.64,3.75,12.91,7.49,18.36c0.43-0.08,0.86-0.08,1.25,0.03c1.64,0.45,2.29,2.04,2.04,3.6
				c-0.44,2.7-1.32,5.3-2.29,7.85C54.49-754.01,52.88-750.47,51.59-746.83z M49.78-732.81c0.73,2.69,2.4,5,4.92,6.73
				c5.22,3.59,10.85,6.44,16.63,9c0.18-0.2,0.42-0.36,0.68-0.46c6.05-2.33,12.13-4.58,18.25-6.73c0.38-0.13,0.76-0.26,1.14-0.39
				c-2.75-4.16-5.37-8.41-7.85-12.73c-2.91-5.08-5.63-10.27-8.23-15.52c-0.67,0.24-1.34,0.48-2.01,0.72
				c-7.7,2.82-15.33,5.82-22.89,8.99c-0.28,1-0.54,2.01-0.73,3.03c-0.07,0.38-0.14,0.76-0.2,1.15c-0.02,0.14-0.02,0.13-0.06,0.52
				c-0.07,0.7-0.11,1.39-0.11,2.09C49.33-734.86,49.41-734.18,49.78-732.81z M51.32-706.39c1.4-4.04,3.05-7.99,4.64-11.95
				c-1.16-0.68-2.29-1.4-3.4-2.15c-1.35,2.84-2.53,5.78-2.46,8.92C50.15-709.71,50.58-707.98,51.32-706.39z M53.97-704.46
				c0.55-1.44,1.12-2.88,1.71-4.31c1.1-2.63,2.28-5.22,3.53-7.78c-0.77-0.41-1.54-0.83-2.31-1.27c-1.55,4.29-3.05,8.61-4.85,12.8
				c0.42,0.68,0.89,1.34,1.42,1.96C53.64-703.52,53.8-704,53.97-704.46z M66.96-695.95c0.75-1.54,1.52-3.06,2.29-4.59
				c1.56-3.07,3.17-6.11,4.82-9.13c-4.33-1.79-8.62-3.67-12.79-5.8c-0.1-0.05-0.19-0.1-0.29-0.15c-1.22,2.51-2.39,5.05-3.46,7.63
				c-0.6,1.43-1.17,2.86-1.72,4.3c-0.28,0.73-0.57,1.45-0.86,2.17c1.91,1.85,4.06,3.43,6.28,4.9c1.53,1.01,3.07,1.99,4.63,2.96
				C66.21-694.42,66.59-695.18,66.96-695.95z M69.8-691.27c2.76-5.6,5.64-11.13,8.47-16.69c-0.84-0.34-1.67-0.67-2.51-1.02
				c-0.01,0.02-0.01,0.04-0.02,0.07c-1.65,3.04-3.25,6.11-4.81,9.2c-0.79,1.56-1.56,3.13-2.33,4.71c-0.36,0.73-0.7,1.47-1.08,2.19
				c-0.02,0.04-0.04,0.09-0.07,0.13C68.23-692.2,69.02-691.73,69.8-691.27z M81.37-687.86c0.85-1.84,1.7-3.67,2.56-5.5
				c1.64-3.45,3.27-6.89,4.91-10.34c-1.59-0.66-3.19-1.31-4.79-1.94c-1.56-0.62-3.12-1.24-4.68-1.87
				c-2.77,5.66-5.5,11.36-8.35,16.99c0.16,0.09,0.31,0.19,0.47,0.28c2.86,1.67,5.78,3.34,8.74,4.93
				C80.6-686.17,80.98-687.01,81.37-687.86z M83.7-683.9c0.55-1.48,1.42-2.9,2.15-4.29c0.78-1.5,1.56-3,2.35-4.5
				c1.6-3.07,3.2-6.14,4.81-9.22c0-0.01,0.01-0.01,0.01-0.02c-0.96-0.42-1.91-0.84-2.88-1.24c-1.58,3.46-3.15,6.93-4.73,10.39
				c-0.84,1.84-1.69,3.68-2.55,5.51c-0.42,0.9-0.84,1.79-1.28,2.67c0.61,0.32,1.22,0.63,1.84,0.94
				C83.49-683.76,83.58-683.85,83.7-683.9z M99.47-679.56c1.01-1.75,1.96-3.53,2.85-5.35c1.69-3.44,3.22-6.92,4.48-10.54
				c-0.26-0.11-0.53-0.21-0.79-0.33c-3.69-1.58-7.19-3.57-10.85-5.23c-0.38-0.17-0.77-0.33-1.15-0.5c-0.01,0.03-0.01,0.05-0.02,0.07
				c-1.55,3.1-3.1,6.19-4.66,9.29c-0.78,1.55-1.55,3.1-2.33,4.65c-0.69,1.38-1.32,2.9-2.19,4.19c0.02,0.11,0.01,0.23-0.02,0.33
				c2.52,1.24,5.07,2.39,7.66,3.39c1.93,0.74,3.92,1.39,5.95,1.76C98.77-678.39,99.12-678.97,99.47-679.56z M103.14-677.49
				c0.3-0.54,0.75-1.05,1.07-1.55c0.42-0.67,0.83-1.34,1.21-2.03c0.8-1.44,1.51-2.94,2.13-4.47c1.14-2.82,1.92-5.76,2.36-8.77
				c-0.69-0.22-1.37-0.46-2.04-0.72c-1.15,3.64-2.46,7.27-4.1,10.71c-0.92,1.92-1.91,3.81-2.96,5.66c-0.21,0.37-0.44,0.73-0.65,1.09
				C101.14-677.46,102.14-677.42,103.14-677.49z M117.16-692.79c-2.18-0.19-4.35-0.64-6.46-1.28c-0.44,3.01-1.21,5.97-2.35,8.81
				c-0.63,1.57-1.37,3.08-2.21,4.55c-0.43,0.75-0.89,1.48-1.37,2.2c-0.18,0.27-0.37,0.6-0.58,0.91c2.57-0.42,4.86-1.71,6.59-3.42
				C113.94-684.15,115.75-688.45,117.16-692.79z M115.91-678.01c-0.06,0.07-0.11,0.14-0.17,0.2c0.02,0.18,0.01,0.37-0.05,0.56
				c-1.8,5.28-2.65,10.83-2.48,16.41c0.06,2.17,0.2,4.39,0.73,6.5c0.4,1.6,1,3.18,2.29,4.18c0.02,0.01,0.09,0.06,0.11,0.07
				c0.09,0.06,0.17,0.11,0.26,0.16c0.04,0.02,0.38,0.18,0.39,0.19c0.4,0.15,0.76,0.22,1.16,0.22c0.86,0,1.69-0.33,2.43-0.84
				c1.69-1.17,2.42-3.25,2.79-5.18C124.92-663.59,121.73-672.36,115.91-678.01z M151.75-738.61c-5.28,1.17-10.56,2.38-15.8,3.69
				c-0.94,0.23-1.87,0.48-2.8,0.72c2.66,3.98,5.35,7.93,8.09,11.85c0.46,0.65,0.11,1.63-0.52,2c-0.72,0.42-1.55,0.12-2-0.52
				c-2.9-4.15-5.75-8.34-8.56-12.55c-8.55,2.24-17.04,4.69-25.46,7.39c-2.92,0.94-5.83,1.9-8.73,2.89c1.62,2.36,3.27,4.7,4.99,6.98
				c4.62,6.14,9.67,11.96,15.1,17.41c0.36,0.05,0.71,0.1,1.08,0.14c3.24,0.31,6.43-0.07,9.24-1.81c2.86-1.78,4.82-4.7,6.66-7.44
				C139.69-717.85,145.93-728.11,151.75-738.61z M160.37-754.9c-2.26-5.23-4.67-10.4-7.22-15.5c-0.63-1.26-1.27-2.52-1.92-3.78
				c-1.28,0.26-2.57,0.51-3.85,0.78c-8.37,1.75-16.7,3.71-24.98,5.86c-2.93,0.76-5.84,1.56-8.76,2.37
				c2.15,3.63,4.32,7.25,6.54,10.84c3.65,5.91,7.4,11.75,11.23,17.54c7.36-1.9,14.77-3.64,22.2-5.25c1.54-2.85,3.07-5.7,4.55-8.58
				C158.9-752.03,159.64-753.46,160.37-754.9z M170.27-777.66c-5.37,0.88-10.73,1.84-16.07,2.89c2.78,5.42,5.41,10.93,7.87,16.51
				c2.29-4.59,4.47-9.25,6.31-14.02C169.06-774.04,169.7-775.84,170.27-777.66z M172.51-794.28c-0.56-6.63-3.79-12.4-8.62-16.77
				c-1.54-1.4-3.23-2.64-4.99-3.78c-0.11,0.43-0.43,0.79-1,0.93c-7.79,1.87-15.54,3.88-23.25,6.03c-0.04,0.01-0.08,0.02-0.12,0.04
				c4.94,7.24,9.58,14.68,13.89,22.32c1.51,2.67,2.97,5.35,4.39,8.06c6.09-1.2,12.21-2.3,18.34-3.28
				C172.28-785.17,172.89-789.71,172.51-794.28z"/>
			<path class="st1" d="M214.57-724.37c-0.79,0.04-1.46,0.64-1.46,1.46c0,1.53,0,3.06,0,4.6c0,0.76,0.67,1.5,1.46,1.46
				c0.79-0.04,1.46-0.64,1.46-1.46c0-1.53,0-3.06,0-4.6C216.03-723.67,215.36-724.4,214.57-724.37z"/>
			<path class="st1" d="M214.57-711.38c-0.79,0.04-1.46,0.64-1.46,1.46c0,1.53,0,3.06,0,4.6c0,0.76,0.67,1.5,1.46,1.46
				c0.79-0.04,1.46-0.64,1.46-1.46c0-1.53,0-3.06,0-4.6C216.03-710.68,215.36-711.41,214.57-711.38z"/>
			<path class="st1" d="M223.37-715.57c-1.53,0-3.06,0-4.6,0c-0.76,0-1.5,0.67-1.46,1.46c0.04,0.79,0.64,1.46,1.46,1.46
				c1.53,0,3.06,0,4.6,0c0.76,0,1.5-0.67,1.46-1.46C224.79-714.9,224.19-715.57,223.37-715.57z"/>
			<path class="st1" d="M210.37-715.57c-1.53,0-3.06,0-4.6,0c-0.76,0-1.5,0.67-1.46,1.46c0.04,0.79,0.64,1.46,1.46,1.46
				c1.53,0,3.06,0,4.6,0c0.76,0,1.5-0.67,1.46-1.46C211.8-714.9,211.19-715.57,210.37-715.57z"/>
		</g>
	</g>
</pattern>
<g id="BG">
	<g>
		<rect x="0" y="0" class="st2" width="2500" height="2000"/>
	</g>
</g>
<g id="Layer_1">
	<g class="st3">
		<rect x="0" y="0" class="st4" width="2500" height="2000"/>
	</g>
</g>
</svg>
